<?xml version="1.0" standalone="no"?>
<!DOCTYPE svg PUBLIC "-//W3C//DTD SVG 1.1//EN" "http://www.w3.org/Graphics/SVG/1.1/DTD/svg11.dtd" >
<svg xmlns="http://www.w3.org/2000/svg" xmlns:xlink="http://www.w3.org/1999/xlink" version="1.1">
<metadata></metadata>
<defs>
<font id="dincondensedcregular" horiz-adv-x="839" >
<font-face units-per-em="2048" ascent="1638" descent="-410" />
<missing-glyph horiz-adv-x="477" />
<glyph horiz-adv-x="0" />
<glyph unicode="&#xd;" horiz-adv-x="477" />
<glyph unicode=" "  horiz-adv-x="477" />
<glyph unicode="&#x09;" horiz-adv-x="477" />
<glyph unicode="&#xa0;" horiz-adv-x="477" />
<glyph unicode="!" horiz-adv-x="430" d="M92 1434h246l-47 -1076h-164zM96 0v225h226v-225h-226z" />
<glyph unicode="&#x22;" horiz-adv-x="702" d="M92 1405h193l-56 -504h-82zM418 1405h192l-55 -504h-82z" />
<glyph unicode="#" horiz-adv-x="907" d="M51 428l2 133h131l43 318h-112v131h131l59 424h154l-60 -424h189l59 424h154l-60 -424h115l-2 -131h-131l-43 -318h113l-2 -133h-132l-59 -428h-154l60 428h-189l-59 -428h-154l60 428h-113zM338 561h188l43 318h-188z" />
<glyph unicode="$" horiz-adv-x="931" d="M92 367v47h205v-39q0 -31 8 -68t29 -59q14 -16 36.5 -27.5t47.5 -15.5v459l-80 26q-59 20 -110.5 54t-86.5 106q-25 53 -28.5 104.5t-3.5 104.5v20q0 23 3 54.5t14 66.5t33.5 73t59.5 73q35 31 84 55t115 31v165h98v-165q78 -4 130 -33t83 -62q59 -63 77.5 -137 t18.5 -137v-47h-204v39q0 23 -5.5 61.5t-31.5 69.5q-10 12 -27.5 24.5t-40.5 16.5v-393l66 -23q49 -16 100 -41t94 -82q43 -59 53.5 -119.5t10.5 -128.5v-28q0 -61 -10.5 -129t-44 -128.5t-98 -102.5t-171.5 -50v-166h-98v166q-76 4 -145.5 37t-110.5 86q-31 41 -50.5 101.5 t-19.5 140.5zM313 1049q0 -37 6.5 -69t28.5 -60q14 -18 33.5 -30.5t36.5 -21.5v359q-23 -6 -41.5 -18.5t-34.5 -37.5q-20 -29 -24.5 -59.5t-4.5 -62.5zM516 205q16 4 41 14t43 33q25 29 30 68.5t5 72.5v33q0 27 -5 72t-30 75q-14 18 -38.5 33t-45.5 23v-424z" />
<glyph unicode="%" horiz-adv-x="1282" d="M92 903v314q0 47 12.5 88t49.5 75q35 33 75.5 43.5t79.5 10.5t80 -10.5t76 -43.5q37 -35 49 -75.5t12 -87.5v-314q0 -47 -12 -88t-49 -76q-35 -33 -76 -43t-80 -10t-80 10.5t-75 42.5q-37 35 -49.5 76t-12.5 88zM252 901q0 -8 1 -22.5t11 -24.5q18 -18 45 -18t45 18 q10 10 11.5 24.5t1.5 22.5v318q0 8 -1 22t-12 25q-18 18 -45 18t-45 -18q-10 -10 -11 -24.5t-1 -22.5v-318zM264 0l590 1434h156l-590 -1434h-156zM756 217v313q0 47 12 88t49 76q35 33 76 43.5t80 10.5t80 -10.5t75 -43.5q37 -35 49.5 -75.5t12.5 -88.5v-313 q0 -47 -12.5 -88t-49.5 -76q-35 -33 -75.5 -43t-79.5 -10t-80 10t-76 43q-37 35 -49 76t-12 88zM915 215q0 -8 1.5 -22.5t11.5 -24.5q18 -18 45 -18t45 18q10 10 11 24.5t1 22.5v317q0 8 -1 22.5t-11 25.5q-18 18 -45 18t-45 -18q-10 -10 -11.5 -24.5t-1.5 -23.5v-317z" />
<glyph unicode="&#x26;" horiz-adv-x="1003" d="M41 334q0 70 16.5 139.5t55.5 126.5q29 41 76 88t92 82q-16 25 -39 58.5t-41 68.5q-29 49 -48.5 107.5t-19.5 146.5q0 66 18.5 120t65.5 99q53 53 115.5 68.5t120.5 15.5q72 0 123 -16.5t88 -40.5q49 -35 79.5 -88.5t30.5 -134.5q0 -72 -23.5 -131.5t-62.5 -112.5 q-33 -45 -80 -90t-86 -78l232 -367q20 27 27 46.5t16 41.5q8 25 14 44.5t12 52.5l170 -48q-8 -37 -20 -76.5t-29 -78.5q-16 -43 -35.5 -74t-48.5 -61l154 -242h-219l-70 111q-18 -20 -44 -43t-54 -39q-45 -25 -103.5 -37t-115.5 -12q-96 0 -162 27.5t-119 88.5 q-43 49 -64.5 106.5t-21.5 131.5zM246 356q0 -29 6 -59.5t29 -60.5q31 -45 71.5 -58.5t81.5 -13.5t68.5 8t54.5 25q23 12 36 23t25 30l-231 371q-27 -20 -52.5 -48t-41.5 -51q-47 -68 -47 -166zM330 1153q0 -72 27.5 -128t48.5 -83l30 -41q51 45 77 85t38 69 q12 27 19.5 53.5t7.5 54.5q0 37 -11.5 60.5t-23.5 36.5q-18 18 -41 25t-47 7q-35 0 -56.5 -11t-31.5 -21q-27 -25 -32 -54.5t-5 -52.5z" />
<glyph unicode="'" horiz-adv-x="438" d="M123 1405h192l-55 -504h-82z" />
<glyph unicode="(" horiz-adv-x="526" d="M102 508q0 121 13.5 233.5t43 224t75 226.5t108.5 242h143q-37 -102 -70.5 -218t-54.5 -217q-23 -102 -38 -235t-15 -256t15.5 -256t37.5 -236q20 -100 54.5 -215.5t70.5 -218.5h-143q-63 125 -108.5 241t-75 227.5t-43 224t-13.5 233.5z" />
<glyph unicode=")" horiz-adv-x="526" d="M41 -418q37 102 70.5 218t54.5 216q10 51 20.5 111.5t17.5 124t11 129t4 127.5q0 61 -4 126.5t-11 129t-17.5 124t-20.5 111.5q-20 100 -54 216t-71 219h143q63 -127 108.5 -242t75 -226.5t43 -224t13.5 -233.5t-13.5 -233.5t-43 -224t-74.5 -227.5t-109 -241h-143z" />
<glyph unicode="*" horiz-adv-x="804" d="M92 1012l182 102l-178 103l58 108l180 -102l-4 211h135l-4 -211l184 112l68 -121l-195 -100l195 -94l-68 -129l-188 117l8 -220h-137l6 220l-178 -113z" />
<glyph unicode="+" horiz-adv-x="1011" d="M102 514v164h322v321h164v-321h321v-164h-321v-321h-164v321h-322z" />
<glyph unicode="," horiz-adv-x="450" d="M102 -205v430h226v-225z" />
<glyph unicode="-" horiz-adv-x="643" d="M92 535v184h459v-184h-459z" />
<glyph unicode="." horiz-adv-x="450" d="M102 0v225h226v-225h-226z" />
<glyph unicode="/" horiz-adv-x="692" d="M-31 0l590 1434h164l-590 -1434h-164z" />
<glyph unicode="0" horiz-adv-x="856" d="M113 309v815q0 27 2 60t12 67.5t29.5 69.5t54.5 63q41 35 99.5 52.5t117.5 17.5q66 0 126 -20.5t112 -73.5q55 -59 66 -117.5t11 -118.5v-815q0 -31 -2 -63.5t-12 -66.5t-30.5 -65.5t-55.5 -62.5q-47 -39 -101.5 -55t-113.5 -16q-72 0 -123 18t-86 47q-70 55 -88 124 t-18 140zM317 338q0 -29 4.5 -59.5t20.5 -55.5q20 -29 44 -36t42 -7q57 0 86 43q16 27 20.5 56.5t4.5 58.5v758q0 29 -4.5 60.5t-20.5 53.5q-12 18 -34.5 30.5t-51.5 12.5q-55 0 -86 -43q-16 -23 -20.5 -54.5t-4.5 -59.5v-758z" />
<glyph unicode="1" horiz-adv-x="856" d="M154 1055v211l229 168h197v-1434h-205v1214z" />
<glyph unicode="2" horiz-adv-x="851" d="M111 0v188l362 668q10 23 24.5 53.5t20.5 53.5t11.5 59.5t5.5 62.5v31q0 68 -31 105q-10 10 -28.5 21t-51.5 11q-37 0 -58.5 -15t-31.5 -34q-14 -25 -16.5 -53.5t-2.5 -63.5v-55h-204v84q0 96 26.5 156.5t61.5 97.5q53 55 115.5 69.5t113.5 14.5q70 0 130 -19.5 t108 -78.5q35 -41 54 -100.5t19 -131.5v-75q0 -37 -3 -65t-15 -66q-14 -47 -25.5 -69t-25.5 -46l-324 -608h393v-195h-628z" />
<glyph unicode="3" horiz-adv-x="856" d="M113 264v146h204v-95q0 -23 6.5 -51t20.5 -47q10 -14 31.5 -25.5t54.5 -11.5q39 0 74 24.5t35 98.5v213q0 25 -4.5 52.5t-24.5 49.5q-20 23 -42 26t-48 3h-49v182h47q23 0 45 5.5t43 25.5q23 23 28 50.5t5 43.5v183q0 29 -9.5 50t-23.5 36q-10 12 -31.5 21t-50.5 9 q-45 0 -76 -36q-20 -25 -25.5 -52.5t-5.5 -52.5v-82h-204v125q0 45 16 108.5t84 120.5q82 70 209 70q55 0 114.5 -15.5t102.5 -49.5q39 -31 71.5 -89.5t32.5 -144.5v-207q0 -25 -4 -54.5t-17 -59t-38 -55t-66 -42.5q45 -18 70 -49t37 -65.5t15 -72.5t3 -71v-137 q0 -86 -12 -152.5t-72 -126.5q-53 -53 -114.5 -68t-126.5 -15q-55 0 -112.5 13t-110.5 64q-33 31 -57.5 82t-24.5 125z" />
<glyph unicode="4" horiz-adv-x="856" d="M74 221v172l305 1041h201l-299 -1026h198v405h205v-407h98v-185h-98v-221h-205v221h-405z" />
<glyph unicode="5" horiz-adv-x="856" d="M117 283v63h205v-39q0 -23 3 -46t17 -42q10 -16 32.5 -27.5t51.5 -11.5q31 0 50.5 9.5t31.5 25.5q18 23 22.5 49.5t4.5 42.5v311q0 23 -4.5 46.5t-20.5 44.5q-25 31 -72 30q-23 0 -42 -6t-38 -26q-18 -18 -32 -52h-189v779h602v-185h-397v-377q29 27 66 41q45 18 96 19 q51 0 98 -19.5t78 -54.5q27 -29 43 -76t16 -100v-387q0 -51 -13 -111.5t-64 -113.5q-31 -35 -86.5 -62.5t-143.5 -27.5q-72 0 -126 21.5t-95 55.5q-59 53 -76.5 113.5t-17.5 112.5z" />
<glyph unicode="6" horiz-adv-x="856" d="M117 299v209q0 49 6 89t17.5 74t24.5 64.5t25 63.5l256 635h220l-254 -621q23 16 53.5 20.5t54.5 4.5q39 0 81 -16.5t77 -57.5q16 -18 38.5 -64.5t22.5 -124.5v-280q0 -88 -24.5 -144.5t-57.5 -89.5q-41 -41 -104.5 -61t-128.5 -20q-59 0 -113.5 18t-101.5 61 q-59 57 -75.5 118t-16.5 122zM322 301q0 -20 3 -41.5t19 -42.5q8 -10 25.5 -23.5t52.5 -13.5q29 0 51.5 9.5t34.5 25.5q18 23 22.5 49.5t4.5 54.5v234q0 23 -3.5 43t-19.5 39q-29 35 -74 35q-20 0 -40.5 -7.5t-39.5 -25.5q-14 -14 -25 -36.5t-11 -55.5v-244z" />
<glyph unicode="7" horiz-adv-x="860" d="M129 1075v359h614v-189l-327 -1245h-207l326 1243h-222v-168h-184z" />
<glyph unicode="8" horiz-adv-x="856" d="M113 309v180v66t7 64.5t27.5 62.5t61.5 61q-59 59 -77.5 109.5t-18.5 110.5v161q0 14 5 67.5t34.5 112t94 104.5t181.5 46t181.5 -46t94 -104.5t34.5 -111.5t5 -68v-161q0 -59 -18 -109.5t-78 -110.5q41 -31 61.5 -61.5t27.5 -62t7 -64.5v-66v-180q0 -14 -5 -67.5 t-34.5 -111.5t-94 -104t-181.5 -46t-181.5 46t-94 104t-34.5 111.5t-5 67.5zM317 338q0 -20 3.5 -47t13.5 -51.5t32.5 -42t61.5 -17.5t61.5 17.5t32.5 42t13.5 51t3.5 47.5v184q0 20 -3.5 47t-13.5 51.5t-32.5 42t-61.5 17.5t-61.5 -17.5t-32.5 -42t-13.5 -51t-3.5 -47.5 v-184zM317 987q0 -20 3.5 -47t13.5 -51.5t32.5 -42t61.5 -17.5t61.5 17.5t32.5 42t13.5 51.5t3.5 47v109q0 20 -3.5 46.5t-13.5 51.5t-32.5 42t-61.5 17t-61.5 -17t-32.5 -42t-13.5 -51.5t-3.5 -46.5v-109z" />
<glyph unicode="9" horiz-adv-x="856" d="M117 858v281q0 88 24.5 144t57.5 89q41 41 104.5 61.5t128.5 20.5q59 0 113.5 -18.5t101.5 -61.5q59 -57 75.5 -117.5t16.5 -121.5v-209q0 -49 -6 -89t-17 -74t-24.5 -64.5t-25.5 -63.5l-256 -635h-220l254 621q-23 -16 -53.5 -20.5t-54.5 -4.5q-39 0 -81 16.5t-77 57.5 q-16 18 -38.5 64t-22.5 124zM322 881q0 -23 3 -43.5t19 -38.5q12 -16 30.5 -25.5t43.5 -9.5q20 0 40.5 7t39.5 26q14 14 25.5 36.5t11.5 55.5v244q0 20 -3.5 41.5t-19.5 42.5q-8 10 -25.5 23t-52.5 13q-57 0 -86 -34q-18 -23 -22 -49.5t-4 -55.5v-233z" />
<glyph unicode=":" horiz-adv-x="440" d="M102 0v215h215v-215h-215zM102 791v215h215v-215h-215z" />
<glyph unicode=";" horiz-adv-x="440" d="M102 -205v420h215v-215zM102 791v215h215v-215h-215z" />
<glyph unicode="&#x3c;" horiz-adv-x="960" d="M51 559v103l807 374v-149l-594 -277l594 -276v-150z" />
<glyph unicode="=" horiz-adv-x="1011" d="M102 289v164h807v-164h-807zM102 575v164h807v-164h-807z" />
<glyph unicode="&#x3e;" horiz-adv-x="960" d="M102 184v150l594 276l-594 277v149l807 -374v-103z" />
<glyph unicode="?" horiz-adv-x="724" d="M41 1036v123q0 80 36 141.5t79 94.5q35 27 83 43t107 16q152 0 236 -78q25 -23 58.5 -76t33.5 -139v-112q0 -57 -9.5 -110.5t-37.5 -100.5l-144 -228q-25 -39 -27.5 -75.5t-2.5 -63.5v-117h-205v170q0 33 1 55.5t7 43t20.5 45t40.5 65.5l117 185q25 39 30 76.5t5 58.5v86 q0 23 -5 44t-26 42q-18 18 -40.5 23t-45.5 5q-31 0 -51 -10t-31 -24q-10 -14 -17 -38t-7 -46v-99h-205zM238 0v225h225v-225h-225z" />
<glyph unicode="@" horiz-adv-x="1366" d="M123 309v492q0 129 18.5 256t85.5 213q25 31 63 59.5t92 52t127 38t165 14.5q135 0 254 -30t200 -116q72 -74 93.5 -175t21.5 -239v-448q0 -86 -10 -132t-25 -71q-23 -41 -70.5 -64.5t-107.5 -23.5q-31 0 -64.5 8.5t-60.5 28.5q-25 18 -44 52t-21 81q-4 -45 -21.5 -69.5 t-46.5 -47.5q-33 -27 -61.5 -40t-79.5 -13q-43 0 -90 13.5t-84 58.5q-39 47 -48.5 107.5t-9.5 113.5v283q0 31 2 65.5t9.5 69.5t23 66.5t39.5 56.5q23 20 56.5 33.5t74.5 13.5q27 0 57.5 -7.5t57.5 -21.5q23 -12 42 -29.5t36 -35.5v79h170v-643q0 -8 1 -20t6 -24.5t14 -20.5 t28 -8q33 0 45 31.5t12 107.5v450q0 33 -2 74t-11 83t-25.5 81t-47.5 70q-43 43 -122 72.5t-183 29.5q-98 0 -162.5 -20.5t-104.5 -51t-60.5 -64.5t-28.5 -58q-6 -20 -19.5 -85t-13.5 -204v-496q0 -139 24.5 -207.5t55.5 -103.5t73.5 -53.5t87 -28.5t82 -12t60.5 -2 q25 0 66.5 3t76.5 9q33 6 75 18.5t73 22.5l39 -131q-68 -29 -121.5 -42.5t-79.5 -17.5q-35 -6 -82 -9t-80 -3q-37 0 -91 4t-113.5 18.5t-116 43t-99.5 77.5q-37 43 -57.5 94.5t-29.5 106.5t-11 110.5t-2 106.5zM569 426q0 -27 4.5 -53.5t20.5 -48.5q16 -23 35.5 -31t42.5 -8 q35 0 58.5 15t33.5 34q16 29 19 72t3 90v215q0 25 -3 57.5t-19 56.5q-12 16 -32.5 28.5t-49.5 12.5q-45 0 -76 -32q-27 -29 -32 -69t-5 -60v-279z" />
<glyph unicode="A" horiz-adv-x="878" d="M20 0l314 1434h180l313 -1434h-204l-68 307h-262l-68 -307h-205zM313 489h217l-110 545z" />
<glyph unicode="B" horiz-adv-x="923" d="M123 0v1434h276q23 0 55.5 -2t69.5 -9.5t74 -20.5t72 -38q49 -35 75.5 -79t39 -89t14.5 -88t2 -74q0 -72 -10.5 -124t-51.5 -99q-20 -25 -40.5 -40t-36.5 -26q41 -18 62 -42.5t36 -47.5q31 -53 36 -91t5 -89v-108q0 -23 -2 -60t-13.5 -78t-37 -84t-70.5 -77 q-35 -27 -93.5 -47.5t-150.5 -20.5h-311zM328 184h92q23 0 64.5 9.5t74.5 54.5q12 18 20.5 39.5t11.5 42t4 37t1 26.5v68q0 53 -10.5 91t-44.5 66q-45 37 -109 37h-104v-471zM328 840h98q53 0 84 17t47 36q18 23 28.5 55.5t10.5 67.5v88q0 29 -11.5 54.5t-27.5 43.5 q-18 18 -50 32.5t-83 14.5h-96v-409z" />
<glyph unicode="C" horiz-adv-x="888" d="M113 346v744q0 70 17 145.5t87 134.5q47 43 111.5 63.5t122.5 20.5q66 0 133 -23.5t114 -68.5q39 -39 66 -100.5t27 -137.5v-98h-199v82q0 23 -6 48.5t-21 45.5q-8 10 -32.5 30.5t-73.5 20.5q-41 0 -65.5 -14t-41.5 -33q-25 -31 -30 -67.5t-5 -73.5v-707q0 -35 3.5 -66.5 t23.5 -60.5q10 -16 36 -33.5t69 -17.5q35 0 65.5 12.5t48.5 36.5q8 10 18.5 37t10.5 80v51h205v-59q0 -106 -29 -170t-57 -92q-33 -35 -97.5 -65.5t-171.5 -30.5q-102 0 -162.5 33.5t-95.5 74.5q-55 66 -63 134.5t-8 123.5z" />
<glyph unicode="D" horiz-adv-x="921" d="M123 0v1434h276q33 0 71 -2t78 -10.5t78 -26t72 -47.5q39 -37 61.5 -81t33 -87t13.5 -81t3 -61v-632q0 -74 -15.5 -150t-76.5 -143q-35 -37 -73 -59.5t-76 -34t-73.5 -15.5t-66.5 -4h-305zM328 201h92q33 0 69.5 8t67.5 41q33 35 40 84t7 84v635q0 31 -7 66.5t-32 66.5 q-29 35 -61.5 41t-71.5 6h-104v-1032z" />
<glyph unicode="E" horiz-adv-x="808" d="M123 0v1434h608v-195h-403v-422h356v-184h-356v-438h409v-195h-614z" />
<glyph unicode="F" horiz-adv-x="796" d="M123 0v1434h622v-195h-417v-430h366v-195h-366v-614h-205z" />
<glyph unicode="G" horiz-adv-x="944" d="M115 332v725q0 66 10 131t57 131q31 43 69 69.5t77 41t76.5 19.5t66.5 5q80 0 145.5 -24.5t108.5 -67.5q41 -41 72.5 -110.5t31.5 -170.5v-57h-204v72q0 27 -6.5 57.5t-34.5 58.5q-16 16 -43 28.5t-68 12.5t-68.5 -14t-46.5 -37q-29 -35 -34 -73.5t-5 -77.5v-672 q0 -33 5.5 -74t29.5 -74q18 -23 48 -37t67 -14q33 0 65.5 15.5t53.5 42.5q29 35 33 82t4 86v192h-174v184h378v-782h-102l-53 111q-23 -39 -49.5 -61.5t-49.5 -35.5q-45 -25 -89 -29.5t-70 -4.5q-55 0 -115.5 19t-112.5 83q-49 61 -61 131t-12 119z" />
<glyph unicode="H" horiz-adv-x="931" d="M123 0v1434h205v-617h276v617h205v-1434h-205v633h-276v-633h-205z" />
<glyph unicode="I" horiz-adv-x="450" d="M123 0v1434h205v-1434h-205z" />
<glyph unicode="J" horiz-adv-x="739" d="M-20 102l157 134q27 -37 59.5 -46.5t55.5 -9.5q35 0 66.5 11.5t54.5 41.5q25 33 32 72t7 74v1055h204v-1028q0 -39 -2 -82t-12 -86t-31.5 -86t-58.5 -80q-61 -61 -130 -76.5t-132 -15.5q-20 0 -51 3t-68 15t-76 36.5t-75 67.5z" />
<glyph unicode="K" horiz-adv-x="972" d="M123 0v1434h205v-691l325 691h215l-290 -588l344 -846h-224l-243 641l-127 -221v-420h-205z" />
<glyph unicode="L" horiz-adv-x="833" d="M123 0v1434h205v-1239h434v-195h-639z" />
<glyph unicode="M" horiz-adv-x="1214" d="M123 0v1434h205l282 -791h8l269 791h205v-1434h-205v897h-10l-215 -647h-109l-215 647h-10v-897h-205z" />
<glyph unicode="N" horiz-adv-x="997" d="M123 0v1434h205l342 -902v902h204v-1434h-204l-342 901v-901h-205z" />
<glyph unicode="O" horiz-adv-x="946" d="M115 377v680q0 82 16 158.5t90 146.5q47 43 109.5 67.5t142.5 24.5t142.5 -24.5t109.5 -67.5q74 -70 90 -146.5t16 -158.5v-680q0 -82 -16 -159t-90 -146q-47 -43 -109.5 -67.5t-142.5 -24.5t-142.5 24.5t-109.5 67.5q-74 70 -90 146.5t-16 158.5zM319 346 q0 -33 7.5 -64.5t35.5 -60.5q16 -16 44 -28.5t67 -12.5t66.5 12.5t44.5 28.5q29 29 36 60.5t7 64.5v741q0 33 -7.5 65t-35.5 60q-16 16 -44 28.5t-67 12.5t-66.5 -12t-44.5 -29q-29 -29 -36 -60.5t-7 -64.5v-741z" />
<glyph unicode="P" horiz-adv-x="880" d="M123 0v1434h305q33 0 70 -2t73.5 -11.5t72.5 -29t71 -52.5q70 -72 87 -159.5t17 -167.5v-41q0 -31 -2 -67t-11 -74.5t-26.5 -76.5t-48.5 -73q-31 -37 -66.5 -58.5t-72.5 -34t-74 -16.5t-69 -4h-121v-567h-205zM328 752h110q29 0 67 9t70 44q33 35 36 71.5t3 75.5v95 q0 37 -6 84t-49 81q-35 29 -77 33t-83 4h-71v-497z" />
<glyph unicode="Q" horiz-adv-x="987" d="M123 377v680q0 82 16.5 158.5t89.5 146.5q47 43 109.5 67.5t142.5 24.5t142.5 -24.5t109.5 -67.5q74 -70 90.5 -146.5t16.5 -158.5v-680q0 -61 -5.5 -103.5t-27.5 -89.5l129 -102l-105 -127l-126 100q-39 -35 -89 -57q-45 -18 -115 -18h-20q-68 2 -132 21t-120 71 q-74 70 -90 146.5t-16 158.5zM328 346q0 -33 7 -64.5t36 -60.5q16 -16 43.5 -28.5t66.5 -12.5q31 0 56 8l-99 78l105 127l92 -74v768q0 33 -7 65t-36 60q-16 16 -44 28.5t-67 12.5t-66.5 -12t-43.5 -29q-29 -29 -36 -60.5t-7 -64.5v-741z" />
<glyph unicode="R" horiz-adv-x="911" d="M123 0v1434h268q39 0 85 -1t94 -11.5t92.5 -33t80.5 -67.5q35 -43 55.5 -106.5t20.5 -143.5v-108q0 -70 -21.5 -130.5t-54.5 -97.5q-23 -27 -51 -45t-57 -28l225 -662h-213l-198 618h-121v-618h-205zM328 803h116q35 0 67 9t60 38q31 29 37 58.5t6 70.5v102q0 41 -13 76 t-34 55q-31 31 -65.5 34t-67.5 3h-106v-446z" />
<glyph unicode="S" horiz-adv-x="901" d="M92 346v47h205v-39q0 -25 5 -61.5t28 -65.5q27 -33 59.5 -40t52.5 -7q59 0 88 17.5t41 33.5q23 29 28 69t5 73v53q0 37 -6 78t-27 69q-20 29 -51 43.5t-47 20.5l-149 53q-55 20 -106.5 54t-82.5 106q-23 49 -27 102.5t-4 106.5v41q0 90 31 156.5t76 109.5 q51 49 113.5 68.5t134.5 19.5q154 0 248 -95t94 -276v-47h-205v39q0 23 -5 62t-30 69q-14 16 -38.5 31.5t-69.5 15.5q-23 0 -49.5 -7t-51.5 -32q-29 -31 -36 -70.5t-7 -74.5q0 -29 6.5 -75t26.5 -74q16 -27 44 -40.5t50 -23.5l125 -45q47 -16 96.5 -42t90.5 -81 q41 -57 51 -118.5t10 -129.5v-49q0 -111 -26.5 -190.5t-71.5 -126.5q-41 -41 -108.5 -67.5t-158.5 -26.5q-111 0 -181 37.5t-105 86.5q-25 33 -38.5 72t-19.5 75t-7 62.5t-1 32.5z" />
<glyph unicode="T" horiz-adv-x="794" d="M41 1239v195h713v-195h-254v-1239h-205v1239h-254z" />
<glyph unicode="U" horiz-adv-x="929" d="M123 377v1057h205v-1088q0 -74 34.5 -120t102.5 -46t102.5 46t34.5 120v1088h205v-1057q0 -119 -32 -196t-82 -122t-110.5 -62t-117.5 -17t-117.5 17t-111 62t-82 122t-31.5 196z" />
<glyph unicode="V" horiz-adv-x="827" d="M20 1434h226l166 -992h8l172 992h215l-303 -1434h-180z" />
<glyph unicode="W" horiz-adv-x="1222" d="M31 1434h217l114 -893h9l164 893h153l164 -893h12l111 893h217l-225 -1434h-185l-164 926h-14l-164 -926h-184z" />
<glyph unicode="X" horiz-adv-x="894" d="M31 0l307 758l-275 676h218l163 -451l166 451h226l-283 -676l311 -758h-217l-203 518l-188 -518h-225z" />
<glyph unicode="Y" horiz-adv-x="847" d="M20 1434h226l178 -570h12l174 570h217l-301 -830v-604h-204v610z" />
<glyph unicode="Z" horiz-adv-x="829" d="M92 0v180l420 1069h-391v185h616v-158l-430 -1092h420v-184h-635z" />
<glyph unicode="[" horiz-adv-x="516" d="M123 -418v1852h373v-152h-189v-1548h187v-152h-371z" />
<glyph unicode="\" horiz-adv-x="692" d="M-31 1434h164l590 -1434h-164z" />
<glyph unicode="]" horiz-adv-x="606" d="M123 1282v152h373v-1852h-371v152h186v1548h-188z" />
<glyph unicode="^" horiz-adv-x="1208" d="M92 555l445 879h135l444 -879h-164l-348 694l-348 -694h-164z" />
<glyph unicode="_" horiz-adv-x="1095" d="M0 -291h1096v-127h-1096v127z" />
<glyph unicode="`" horiz-adv-x="493" d="M41 1434h219l90 -250h-117z" />
<glyph unicode="a" horiz-adv-x="829" d="M92 270q0 27 2 61t8.5 67.5t18.5 66.5t35 59q25 31 57.5 48.5t66 26.5t64.5 11t53 2q10 0 40 -1t77 -5v107q0 23 -4 44t-23 42q-30 32 -78 32h-3q-23 0 -44.5 -8t-37.5 -28q-25 -27 -27 -66h-195v10q0 64 24 117q26 57 60 92q39 39 98.5 61.5t131.5 22.5q70 0 125 -22.5 t94 -59.5q55 -55 69.5 -120.5t14.5 -118.5v-711h-205v100h-4q-10 -16 -28.5 -38.5t-41.5 -38.5q-29 -23 -57.5 -31t-60.5 -8q-31 0 -74 9t-82 44q-47 45 -60.5 108.5t-13.5 124.5zM297 299q0 -23 4 -43t16 -41q29 -47 82 -47q47 0 81 31.5t34 99.5v143q-37 6 -72 7 q-25 0 -57.5 -7.5t-56.5 -35.5q-20 -23 -25.5 -52.5t-5.5 -54.5z" />
<glyph unicode="b" d="M111 0v1434h204v-500q29 37 68 59q29 16 59.5 27.5t75.5 11.5t83 -13t69 -46q41 -41 50 -88t9 -84v-529q0 -49 -6 -106t-41 -105q-6 -8 -19.5 -21t-34 -25.5t-49 -21.5t-67.5 -9q-31 0 -63.5 8t-61.5 26q-20 14 -38.5 33t-31.5 39h-2v-90h-204zM315 319q0 -25 5.5 -51 t27.5 -51q10 -10 29.5 -21.5t48.5 -11.5q43 0 72 31q20 23 23 44.5t3 47.5v412q0 18 -4 39.5t-22 42.5q-28 30 -69 30h-3q-29 0 -48.5 -11t-29.5 -21q-23 -25 -28 -51.5t-5 -51.5v-377z" />
<glyph unicode="c" horiz-adv-x="786" d="M102 342v350q0 31 3.5 65t12.5 68.5t27.5 68.5t51.5 62q33 29 84 52.5t127 23.5q74 0 135 -23.5t100 -64.5q41 -43 61.5 -106.5t20.5 -122.5v-6h-205v4q0 18 -4 38.5t-18 41.5q-10 16 -31 27t-51 11q-18 0 -40 -6t-40 -28q-18 -23 -23.5 -47.5t-5.5 -51.5v-393 q0 -23 5 -46t20 -40q8 -10 27.5 -22.5t56.5 -12.5q23 0 44 6.5t38 28.5q16 20 19 44t3 38v2h205v-18q0 -45 -9 -82t-24.5 -64.5t-34 -49t-34.5 -36.5q-35 -29 -85.5 -49t-119.5 -20q-70 0 -132.5 22.5t-103.5 65.5q-31 31 -47 64.5t-23.5 68.5t-8.5 69.5t-1 67.5z" />
<glyph unicode="d" d="M111 272v529q0 37 9 84t50 88q31 33 68.5 46t83.5 13q45 0 75.5 -11t59.5 -28q39 -23 67 -59v500h205v-1434h-205v90h-2q-12 -20 -30.5 -38.5t-38.5 -33.5q-29 -18 -62 -26t-63 -8q-39 0 -68 9t-49.5 21.5t-33.5 25.5t-19 21q-35 47 -41 104.5t-6 106.5zM315 307 q0 -27 3.5 -48t23.5 -44q27 -31 72 -31q29 0 48 11.5t30 21.5q23 25 27.5 51.5t4.5 50.5v377q0 25 -5 51.5t-27 51.5q-10 10 -30 21t-48 11q-45 0 -72 -30q-18 -20 -22.5 -42t-4.5 -40v-412z" />
<glyph unicode="e" horiz-adv-x="813" d="M102 328v389q0 27 3.5 58.5t14.5 63t30.5 63.5t52.5 61q35 31 86 50t117 19t120 -19.5t92 -54.5q33 -29 53.5 -62.5t32 -67t14.5 -66.5t3 -64v-266h-414v-131q0 -23 4 -46.5t23 -41.5q25 -29 78 -29t82 43q18 31 18 70h205v-8q0 -29 -4 -60.5t-16.5 -64.5t-35 -64.5 t-59.5 -58.5q-39 -29 -88 -43t-102 -14q-72 0 -133.5 26.5t-102.5 71.5q-27 31 -42 63.5t-22.5 65.5t-8.5 63.5t-1 53.5zM307 590h209v133q0 20 -5 40.5t-24 39.5q-28 28 -72 28h-3q-51 0 -80 -34q-16 -18 -20.5 -40t-4.5 -42v-125z" />
<glyph unicode="f" horiz-adv-x="548" d="M51 852v164h107v135q0 53 12 112.5t66 106.5q47 41 106 52.5t113 11.5h73v-181h-41q-27 0 -50 -5t-46 -29q-20 -23 -25.5 -46.5t-5.5 -52.5v-104h166v-164h-164v-852h-204v852h-107z" />
<glyph unicode="g" horiz-adv-x="831" d="M102 -123h205q-2 -23 6.5 -42t20.5 -34q16 -18 37.5 -23t38.5 -5q33 0 53 11t31 28q14 20 18 48.5t4 59.5v172q-29 -37 -67 -59q-29 -16 -60 -27.5t-76 -11.5t-82.5 13t-68.5 46q-41 41 -50.5 88t-9.5 84v518q0 49 6.5 106.5t41.5 104.5q6 8 19 21.5t33.5 26t49.5 21.5 t67 9q31 0 64 -8t61 -27q20 -14 39 -32.5t31 -38.5h2v90h205v-1110q0 -61 -12.5 -124t-65.5 -118q-31 -35 -88 -63.5t-147 -28.5q-88 0 -143.5 29.5t-84.5 64.5q-33 37 -53.5 94.5t-24.5 116.5zM307 307q0 -16 4 -37.5t23 -44.5q28 -30 69 -30h3q29 0 48 11t29 21 q23 25 28 51.5t5 51.5v366q0 25 -5 51.5t-28 51.5q-10 10 -29.5 21t-47.5 11q-43 0 -72 -30q-18 -23 -22.5 -45.5t-4.5 -46.5v-402z" />
<glyph unicode="h" d="M111 0v1434h204v-500q29 37 68 59q29 16 59.5 27.5t75.5 11.5t83 -13t69 -46q41 -41 50 -88t9 -84v-801h-205v719q0 18 -4 39.5t-22 42.5q-28 30 -69 30h-3q-29 0 -48.5 -11t-29.5 -21q-23 -25 -28 -51.5t-5 -51.5v-696h-204z" />
<glyph unicode="i" horiz-adv-x="425" d="M111 0v1016h204v-1016h-204zM111 1204v201h204v-201h-204z" />
<glyph unicode="j" horiz-adv-x="430" d="M-31 -217h37q33 0 52.5 10t29.5 21q20 23 23.5 47t3.5 43v1112h204v-1112q0 -57 -6 -122t-59 -124q-51 -55 -109.5 -65.5t-109.5 -10.5h-66v201zM115 1204v201h204v-201h-204z" />
<glyph unicode="k" horiz-adv-x="825" d="M111 0v1434h204v-861h4l246 443h205l-244 -414l293 -602h-221l-184 438l-99 -153v-285h-204z" />
<glyph unicode="l" horiz-adv-x="471" d="M111 279v1155h204v-1145q0 -18 5.5 -40t23.5 -38q16 -14 34.5 -17.5t31.5 -3.5h20v-190h-59q-18 0 -44 2t-54.5 11.5t-57.5 25.5t-53 47q-37 47 -44 97t-7 96z" />
<glyph unicode="m" horiz-adv-x="1245" d="M111 0v1016h204v-92q14 18 30.5 34.5t33.5 28.5q27 20 60.5 32.5t78.5 12.5q59 0 111 -33q29 -18 46 -40.5t27 -47.5q16 29 39 52.5t52 40.5q47 28 108 28h4q47 0 96.5 -14t88.5 -68q31 -43 38 -89t7 -87v-774h-205v719q0 20 -5 40.5t-22 41.5q-28 30 -67 30h-2 q-45 0 -76 -32q-23 -25 -28 -51.5t-5 -51.5v-696h-205v719q0 20 -4 39.5t-22 42.5q-28 30 -67 30h-3q-18 0 -37.5 -6t-38.5 -26q-23 -25 -28 -51.5t-5 -51.5v-696h-204z" />
<glyph unicode="n" d="M111 0v1016h204v-92q27 37 56.5 58.5t57.5 32.5t50.5 14t38.5 3q53 0 90 -16.5t62 -42.5q41 -41 50 -88t9 -84v-801h-205v719q0 18 -4 39.5t-22 42.5q-28 30 -69 30h-3q-29 0 -48.5 -11t-29.5 -21q-23 -25 -28 -51.5t-5 -51.5v-696h-204z" />
<glyph unicode="o" horiz-adv-x="823" d="M102 328v360q0 31 2 65.5t12.5 70.5t31 71t55.5 66q41 35 96 53t113 18q57 0 112.5 -18.5t96.5 -52.5q35 -31 55 -66t30.5 -71t12.5 -70.5t2 -65.5v-360q0 -31 -2 -66t-12.5 -70.5t-31 -70.5t-54.5 -66q-41 -35 -96.5 -53t-112.5 -18t-112.5 18t-96.5 53q-35 31 -55.5 66 t-31 70.5t-12.5 70.5t-2 66zM307 315q0 -68 31 -102q29 -29 74 -29q23 0 42 8.5t31 20.5q31 35 31 102v385q0 68 -31 103q-28 28 -70 28h-3q-45 0 -74 -28q-31 -35 -31 -103v-385z" />
<glyph unicode="p" d="M111 -418v1434h204v-90h2q12 20 31 38.5t39 32.5q29 18 61.5 26.5t63.5 8.5q39 0 67.5 -9t49 -21.5t34 -25.5t19.5 -22q35 -47 41 -104t6 -107v-528q0 -37 -9 -84t-50 -88q-31 -33 -69 -46t-83 -13t-75.5 11t-59.5 28q-39 23 -68 59v-500h-204zM315 319q0 -25 5.5 -51 t27.5 -51q10 -10 29.5 -21.5t48.5 -11.5q43 0 72 31q18 20 22 42t4 40v412q0 27 -3 48t-23 44q-28 30 -69 30h-3q-29 0 -48.5 -11t-29.5 -21q-23 -25 -28 -51.5t-5 -51.5v-377z" />
<glyph unicode="q" d="M111 215v528q0 49 6 106.5t41 104.5q6 8 19 21.5t33.5 26t49.5 21.5t68 9q31 0 63.5 -8t61.5 -27q20 -14 38.5 -32.5t30.5 -38.5h2v90h205v-1434h-205v500q-29 -37 -67 -59q-29 -16 -59.5 -27.5t-75.5 -11.5t-83 13t-69 46q-41 41 -50 88t-9 84zM315 297q0 -18 4.5 -39.5 t22.5 -42.5q27 -31 72 -31q29 0 48 11.5t30 21.5q23 25 27.5 51.5t4.5 50.5v377q0 25 -5 51.5t-27 51.5q-10 10 -30 21t-48 11q-45 0 -72 -30q-20 -23 -23.5 -44.5t-3.5 -47.5v-412z" />
<glyph unicode="r" horiz-adv-x="608" d="M111 0v1016h204v-109l4 -2q31 39 67 63.5t72 39t69.5 19.5t60.5 5v-219q-22 4 -48 4q-17 0 -36 -2q-47 -4 -89 -27.5t-71 -72.5t-29 -133v-582h-204z" />
<glyph unicode="s" horiz-adv-x="759" d="M61 285h205q0 -20 6.5 -41t20.5 -37t37.5 -24.5t46.5 -8.5t43 8t37 27q16 18 21 39.5t5 42.5q0 41 -18.5 70.5t-83.5 58.5l-121 51q-59 25 -88 50.5t-39 35.5q-35 41 -45 87t-10 85q0 76 21.5 131t54.5 90q31 31 83 56.5t136 25.5q98 0 154.5 -26.5t82.5 -55.5 q37 -37 57.5 -93t20.5 -116h-201q-4 45 -30 74q-27 27 -74 27q-39 0 -69.5 -24.5t-30.5 -78.5q0 -14 4 -31.5t16 -33.5q16 -23 37.5 -34t42.5 -19l123 -52q39 -16 73.5 -42.5t57.5 -55.5t37 -75t14 -111q0 -37 -12 -92.5t-53 -106.5q-33 -41 -91.5 -71.5t-156.5 -30.5 q-92 0 -149.5 27.5t-88.5 62.5q-39 41 -57.5 98t-18.5 113z" />
<glyph unicode="t" horiz-adv-x="522" d="M31 852v164h104v309h205v-309h131v-164h-131v-557q0 -16 4 -43t25 -43q16 -14 38.5 -16.5t36.5 -2.5h27v-190h-55q-23 0 -51.5 1t-58.5 8t-58.5 21.5t-52.5 41.5q-43 47 -51.5 102t-8.5 102v576h-104z" />
<glyph unicode="u" d="M111 215v801h204v-719q0 -23 4.5 -45.5t20.5 -40.5q10 -10 25.5 -18.5t40.5 -8.5q29 0 50 10.5t36 26.5q23 25 27.5 51.5t4.5 46.5v697h205v-1016h-205v102q-4 -4 -23.5 -28.5t-47.5 -46.5q-61 -43 -142 -43q-66 0 -103.5 24.5t-55.5 50.5q-25 35 -33 77t-8 79z" />
<glyph unicode="v" horiz-adv-x="731" d="M16 1016h215l138 -645h10l137 645h205l-270 -1016h-164z" />
<glyph unicode="w" horiz-adv-x="1116" d="M16 1016h209l131 -643l121 643h170l125 -643l127 643h205l-242 -1016h-174l-123 623h-10l-123 -623h-174z" />
<glyph unicode="x" horiz-adv-x="733" d="M14 0l250 518l-237 498h215l127 -289l127 289h215l-242 -498l254 -518h-215l-139 311l-140 -311h-215z" />
<glyph unicode="y" horiz-adv-x="761" d="M20 1016h222l166 -631h8l127 631h205l-279 -1153q-10 -45 -29.5 -108.5t-64.5 -108.5q-47 -45 -102.5 -54.5t-102.5 -9.5h-53l-4 191h39q23 0 48 7t48 36q6 8 15 28.5t22 69.5l32 133z" />
<glyph unicode="z" horiz-adv-x="694" d="M51 0v168l363 674h-336v174h565v-148l-375 -694h375v-174h-592z" />
<glyph unicode="{" horiz-adv-x="544" d="M20 416v184q63 -2 101.5 27.5t54.5 70.5q12 29 15.5 70t3.5 70v249q0 16 1 46t8 65t22.5 72t43.5 69q27 31 81.5 63t140.5 32h32v-164h-20q-14 0 -40 -5t-48 -30q-27 -29 -32 -68t-5 -65v-266q0 -162 -49 -238q-14 -23 -44 -49.5t-83 -40.5q53 -14 82.5 -41t44.5 -49 q25 -39 37 -96.5t12 -141.5v-266q0 -23 3 -52.5t16.5 -55t38 -43t67.5 -17.5h20v-164h-32q-59 0 -120 24.5t-102 69.5q-27 29 -42 63t-22 66.5t-9 64.5t-2 58v250q0 29 -3.5 70t-15.5 69q-16 41 -54 71t-102 28z" />
<glyph unicode="|" horiz-adv-x="389" d="M123 -418v1872h143v-1872h-143z" />
<glyph unicode="}" horiz-adv-x="544" d="M20 -254h21q43 0 67.5 17.5t38 43t16.5 55t3 52.5v266q0 84 12 141.5t37 96.5q14 23 44 49.5t83 40.5q-53 14 -83 40.5t-44 49.5q-49 76 -49 238v266q0 27 -5 65.5t-32 67.5q-23 25 -48.5 30t-39.5 5h-21v164h33q86 0 140.5 -32t80.5 -63q29 -33 44.5 -69.5t22.5 -71.5 t8 -64.5t1 -46.5v-249q0 -29 3 -70t16 -70q16 -41 54 -70.5t101 -27.5v-184q-63 2 -101 -28t-54 -71q-12 -29 -15.5 -69.5t-3.5 -69.5v-250q0 -27 -2 -58.5t-10 -64t-22.5 -66.5t-41.5 -63q-41 -45 -101 -69.5t-120 -24.5h-33v164z" />
<glyph unicode="~" horiz-adv-x="905" d="M111 500v6q0 33 8 77t31 79q18 29 56 55t103 26q39 0 72 -9t55 -17l41 -15q25 -10 47.5 -17t44.5 -7q29 0 43.5 9t20.5 18q8 10 13 27.5t5 33.5h144v-6q0 -33 -8.5 -77t-30.5 -79q-18 -29 -56 -55.5t-104 -26.5q-39 0 -71.5 9.5t-55.5 17.5l-41 14q-25 10 -47.5 17.5 t-44.5 7.5q-29 0 -43 -9.5t-21 -17.5q-8 -10 -13 -27.5t-5 -33.5h-143z" />
<glyph horiz-adv-x="1042" d="M41 1241v193h713v-193h-262v-373h118q27 0 61 -2t68.5 -11t68.5 -26.5t62 -48.5q51 -55 65.5 -126.5t14.5 -127.5v-100q0 -86 -7 -170t-48 -145q-27 -39 -59.5 -61.5t-64.5 -33t-60.5 -13.5t-44.5 -3h-62v205h43q33 0 51.5 17.5t24.5 29.5q18 33 20 75t2 72v82 q0 33 -5 83t-38 83q-31 29 -74.5 33t-82.5 4h-53v-684h-205v1241h-246z" />
<glyph horiz-adv-x="735" d="M123 0v1434h622v-195h-417v-1239h-205zM272 1565l103 215h248l-217 -215h-134z" />
<glyph horiz-adv-x="389" d="M102 215h215v-215l-215 -225v440z" />
<glyph horiz-adv-x="626" d="M111 0v1016h510v-201h-306v-815h-204zM242 1184l90 250h219l-193 -250h-116z" />
<glyph horiz-adv-x="755" d="M102 215h215v-215l-215 -225v440zM469 215h215v-215l-215 -225v440z" />
<glyph unicode="&#x85;" horiz-adv-x="1064" d="M72 0v205h204v-205h-204zM440 0v205h205v-205h-205zM788 0v205h205v-205h-205z" />
<glyph horiz-adv-x="778" d="M72 842v184h215v408h205v-408h215v-184h-215v-842h-205v842h-215z" />
<glyph horiz-adv-x="778" d="M72 408v184h215v250h-215v184h215v408h205v-408h215v-184h-215v-250h215v-184h-215v-408h-205v408h-215z" />
<glyph horiz-adv-x="4" d="M-512 1184l90 250h219l-192 -250h-117z" />
<glyph horiz-adv-x="1820" d="M92 903v314q0 47 12.5 88t49.5 75q35 33 75.5 43.5t79.5 10.5t80 -10.5t76 -43.5q37 -35 49 -75.5t12 -87.5v-314q0 -47 -12 -88t-49 -76q-35 -33 -76 -43t-80 -10t-80 10.5t-75 42.5q-37 35 -49.5 76t-12.5 88zM252 901q0 -8 1 -22.5t11 -24.5q18 -18 45 -18t45 18 q10 10 11.5 24.5t1.5 22.5v318q0 8 -1 22t-12 25q-18 18 -45 18t-45 -18q-10 -10 -11 -24.5t-1 -22.5v-318zM264 0l590 1434h156l-590 -1434h-156zM756 217v313q0 47 12 88t49 76q35 33 76 43.5t80 10.5t80 -10.5t75 -43.5q37 -35 49.5 -75.5t12.5 -88.5v-313 q0 -47 -12.5 -88t-49.5 -76q-35 -33 -75.5 -43t-79.5 -10t-80 10t-76 43q-37 35 -49 76t-12 88zM915 215q0 -8 1.5 -22.5t11.5 -24.5q18 -18 45 -18t45 18q10 10 11 24.5t1 22.5v317q0 8 -1 22.5t-11 25.5q-18 18 -45 18t-45 -18q-10 -10 -11.5 -24.5t-1.5 -23.5v-317z M1294 217v313q0 47 12.5 88t49.5 76q35 33 76 43.5t79 10.5q39 0 80 -10.5t76 -43.5q37 -35 49.5 -75.5t12.5 -88.5v-313q0 -47 -12.5 -88t-49.5 -76q-35 -33 -76 -43t-80 -10t-79.5 10t-75.5 43q-37 35 -49.5 76t-12.5 88zM1454 215q0 -8 1 -22.5t11 -24.5q18 -18 45 -18 t45 18q10 10 11.5 24.5t1.5 22.5v317q0 8 -1 22.5t-12 25.5q-18 18 -45 18t-45 -18q-10 -10 -11 -24.5t-1 -23.5v-317z" />
<glyph horiz-adv-x="1343" d="M-10 0v195h22q16 0 37 3t43 17q51 33 72 94q18 53 31.5 150.5t20.5 206t11 212t4 171.5l7 385h561v-580h100q31 0 65.5 -1t71.5 -8t75 -23.5t73 -49.5q33 -31 51 -64.5t26.5 -65.5t9.5 -59.5t1 -47.5v-168q0 -53 -9.5 -111.5t-50.5 -120.5q-14 -23 -37.5 -46t-59.5 -42.5 t-88 -33t-122 -13.5h-311v1249h-164l-6 -200q-2 -53 -3 -103.5t-2 -107t-4 -124t-9 -153.5q-10 -152 -34 -260t-77 -182q-33 -45 -67.5 -68.5t-69.5 -35t-66 -13.5t-55 -2h-47zM799 184h92q20 0 50 5.5t57.5 27t48 63.5t20.5 117v78q0 53 -10 91t-45 67q-45 37 -109 37h-104 v-486z" />
<glyph horiz-adv-x="538" d="M72 567l415 414v-209l-206 -205l206 -205v-208z" />
<glyph horiz-adv-x="1363" d="M123 0v1434h205v-598h276v598h205v-598h100q31 0 66 -1t71.5 -8.5t74.5 -24t73 -48.5q33 -31 51.5 -65t26.5 -65.5t9 -59t1 -48.5v-149q0 -53 -9 -111.5t-50 -120.5q-14 -23 -38 -46t-59.5 -42.5t-88 -33t-122.5 -13.5h-311v651h-276v-651h-205zM809 184h92q23 0 65 9.5 t74 54.5q20 29 28.5 70.5t8.5 78.5v60q0 53 -10 91t-45 66q-45 37 -109 37h-104v-467z" />
<glyph horiz-adv-x="946" d="M123 0v1434h205v-615h116q47 0 76 43q20 29 28.5 71t16.5 118l15 129q6 59 20 117.5t62 99.5q45 39 97 46t93 7h31v-184h-27q-12 0 -27.5 -6.5t-25.5 -16.5q-16 -16 -24.5 -49t-16.5 -102l-14 -138q-4 -41 -9.5 -79.5t-19.5 -73.5q-16 -39 -45 -60l221 -741h-223 l-178 635h-166v-635h-205zM338 1565l102 215h248l-217 -215h-133z" />
<glyph horiz-adv-x="1062" d="M41 1241v193h713v-193h-262v-373h118q27 0 61 -2t68.5 -11t68.5 -26.5t62 -48.5q51 -55 65.5 -126.5t14.5 -127.5v-526h-205v481q0 33 -5 83t-38 83q-31 29 -74.5 33t-82.5 4h-53v-684h-205v1241h-246z" />
<glyph horiz-adv-x="819" d="M123 0v1434h205v-1250h266v1250h205v-1434h-236v-242h-205v242h-235z" />
<glyph horiz-adv-x="937" d="M111 1124v123h98v187h205v-187h213v-123h-213v-190q29 37 67 59q29 16 59.5 27.5t75.5 11.5t83 -13t69 -46q41 -41 50 -88t9 -84v-897q0 -61 -5 -119.5t-44 -110.5q-25 -33 -54.5 -51t-60 -27.5t-61.5 -11.5t-59 -2h-66v191h37q33 0 52.5 10t29.5 20q20 23 23.5 47.5 t3.5 43.5v825q0 18 -4.5 39.5t-22.5 42.5q-29 31 -72 30q-29 0 -48 -11t-30 -21q-23 -25 -27.5 -51.5t-4.5 -51.5v-696h-205v1124h-98z" />
<glyph horiz-adv-x="389" d="M72 1067v215l215 225v-440h-215z" />
<glyph horiz-adv-x="409" d="M72 993v441h215v-215z" />
<glyph horiz-adv-x="755" d="M72 1067v215l215 225v-440h-215zM438 1067v215l215 225v-440h-215z" />
<glyph horiz-adv-x="776" d="M72 993v441h215v-215zM438 993v441h215v-215z" />
<glyph horiz-adv-x="901" d="M205 717q0 51 19.5 95t53 78t77.5 53.5t96 19.5q51 0 95 -19.5t77.5 -53.5t53 -78t19.5 -95t-19.5 -95t-53 -78t-77.5 -53.5t-95 -19.5t-95.5 19.5t-78 53.5t-53 78t-19.5 95z" />
<glyph horiz-adv-x="927" d="M123 537v163h682v-163h-682z" />
<glyph horiz-adv-x="1312" d="M72 555v127h1169v-127h-1169z" />
<glyph horiz-adv-x="4" d="M-553 1565l102 215h248l-217 -215h-133z" />
<glyph horiz-adv-x="1492" d="M72 1278v156h508v-156h-164v-559h-180v559h-164zM688 719v715h166l170 -398l170 398h166v-715h-170v375l-115 -277h-102l-115 277v-375h-170z" />
<glyph horiz-adv-x="1218" d="M25 0v184h24q33 0 58.5 17.5t42.5 40.5q20 31 32.5 83t20.5 154q2 25 5 72t5 99t4 97.5t2 67.5l4 201h525v-377h106q57 0 114.5 -10.5t106.5 -55.5q29 -25 55.5 -71.5t26.5 -118.5v-115q0 -18 -2 -41.5t-10 -51.5t-24.5 -56.5t-45.5 -52.5q-51 -45 -107.5 -55.5 t-113.5 -10.5h-311v831h-131l-2 -65q-4 -115 -8.5 -193.5t-8.5 -129t-7 -77t-5 -38.5q-4 -25 -11.5 -57.5t-19.5 -66.5t-30.5 -68t-45.5 -60q-33 -33 -80 -54.5t-96 -21.5h-73zM748 184h94q20 0 44.5 6.5t43.5 28.5q16 16 19 35.5t3 36.5v57q0 16 -4 38t-20 38 q-18 20 -41 25.5t-45 5.5h-94v-271z" />
<glyph horiz-adv-x="538" d="M51 154v208l207 205l-207 205v209l416 -414z" />
<glyph horiz-adv-x="1210" d="M111 0v1016h204v-404h209v404h205v-404h107q57 0 114.5 -10t106.5 -55q29 -25 55.5 -72t26.5 -119v-100q0 -72 -27 -119t-55 -71q-49 -45 -106.5 -55.5t-114.5 -10.5h-312v428h-209v-428h-204zM729 184h94q20 0 45 6.5t43 28.5q16 16 19.5 35.5t3.5 36.5v31q0 16 -4 37.5 t-21 37.5q-18 20 -40.5 25.5t-45.5 5.5h-94v-244z" />
<glyph horiz-adv-x="825" d="M111 0v1016h204v-410h66q33 0 51.5 9.5t34.5 39.5q12 25 17 50.5t10 48.5l12 73q4 29 14 66t33 65q33 45 80 56.5t96 11.5h47v-174h-26q-18 0 -31.5 -6t-22.5 -15q-6 -8 -12 -23t-10 -46l-10 -76q-4 -35 -8.5 -63.5t-14.5 -51.5q-10 -20 -20.5 -31.5t-20.5 -19.5 l184 -520h-206l-148 434h-115v-434h-204zM309 1184l90 250h219l-192 -250h-117z" />
<glyph horiz-adv-x="937" d="M111 1124v123h98v187h205v-187h213v-123h-213v-190q29 37 67 59q29 16 59.5 27.5t75.5 11.5t83 -13t69 -46q41 -41 50 -88t9 -84v-801h-204v719q0 18 -4.5 39.5t-22.5 42.5q-29 31 -72 30q-29 0 -48 -11t-30 -21q-23 -25 -27.5 -51.5t-4.5 -51.5v-696h-205v1124h-98z" />
<glyph d="M111 0v1016h204v-832h209v832h205v-1016h-209v-205h-201v205h-208z" />
<glyph unicode="&#xa1;" horiz-adv-x="782" d="M6 1434h234l196 -703h6q4 29 10.5 67t13.5 77.5t15 78.5t15 70l90 410h211l-244 -979q-16 -59 -30.5 -122t-34 -119t-49 -102t-74.5 -73q-47 -29 -91.5 -34t-85.5 -5h-73v195h51q63 0 94 34q12 12 24.5 39t16.5 47l27 121zM172 1755v25h164v-19q0 -12 4 -27.5t20 -29.5 q14 -12 30 -15t32 -3t31.5 3t29.5 15q16 14 20.5 29.5t4.5 27.5v19h164v-25q0 -61 -19.5 -101t-42.5 -63q-31 -29 -80 -43t-108 -14t-108.5 14.5t-80.5 42.5q-23 23 -42 63t-19 101z" />
<glyph unicode="&#xa2;" horiz-adv-x="761" d="M20 1016h222l166 -631h8l127 631h205l-279 -1153q-10 -45 -29.5 -108.5t-64.5 -108.5q-47 -45 -102.5 -54.5t-102.5 -9.5h-53l-4 191h39q23 0 48 7t48 36q6 8 15 28.5t22 69.5l32 133zM143 1395v26h152v-30q0 -10 2 -23.5t6 -21.5q4 -12 21.5 -26.5t52.5 -14.5t52 14 t22 27q4 8 6 21t2 24v30h151v-26q0 -41 -10 -89.5t-51 -88.5q-39 -39 -87 -48.5t-85 -9.5t-85 9.5t-87 48.5q-41 41 -51.5 89t-10.5 89z" />
<glyph unicode="&#xa3;" horiz-adv-x="739" d="M-20 102l157 134q27 -37 59.5 -46.5t55.5 -9.5q35 0 66.5 11.5t54.5 41.5q25 33 32 72t7 74v1055h204v-1028q0 -39 -2 -82t-12 -86t-31.5 -86t-58.5 -80q-61 -61 -130 -76.5t-132 -15.5q-20 0 -51 3t-68 15t-76 36.5t-75 67.5z" />
<glyph unicode="&#xa4;" horiz-adv-x="1212" d="M104 332l152 151q-43 70 -52 129.5t-9 87.5q0 29 9 88.5t52 129.5l-152 149l129 131l152 -151q20 16 72.5 40.5t148.5 24.5t148.5 -24.5t72.5 -40.5l152 151l129 -131l-152 -149q8 -10 19.5 -27t21 -41.5t15.5 -61t6 -88.5q0 -102 -22.5 -149t-39.5 -68l152 -151 l-129 -129l-152 151q-23 -16 -76 -40.5t-145 -24.5t-145 24.5t-76 40.5l-152 -151zM354 700q0 -53 20.5 -99t54.5 -80t80 -53t97 -19t97.5 19t80 53t54 80t20.5 99q0 51 -19.5 97.5t-54 80t-81 54t-97.5 20.5q-53 0 -98 -20.5t-80 -54t-54.5 -80t-19.5 -97.5z" />
<glyph unicode="&#xa5;" horiz-adv-x="796" d="M123 0v1434h418v131h204v-326h-417v-1239h-205z" />
<glyph unicode="&#xa6;" horiz-adv-x="389" d="M123 334h143v-752h-143v752zM123 702v752h143v-752h-143z" />
<glyph unicode="&#xa7;" horiz-adv-x="831" d="M72 739q0 41 13 80t42 74q16 18 37.5 35.5t42.5 32.5q-47 41 -68.5 89t-21.5 119q0 86 35.5 136.5t70.5 74.5q35 23 84 38.5t113 15.5q66 0 123 -19.5t106 -68.5q47 -47 64.5 -98.5t17.5 -110.5v-27h-194v18q0 16 -6.5 35t-16.5 31q-10 16 -33.5 27.5t-58.5 11.5 q-43 0 -66 -19q-35 -25 -34 -69q0 -29 14 -50.5t34.5 -37t45 -26.5t43.5 -21l84 -43q47 -25 94 -55.5t82 -84.5q23 -35 32 -73.5t9 -79.5q0 -51 -14.5 -85t-30.5 -57q-18 -25 -44 -46t-46 -33q49 -49 69.5 -97.5t20.5 -111.5q0 -86 -35 -135.5t-72 -75.5q-35 -23 -84 -38 t-112 -15q-66 0 -123.5 19t-106.5 69q-47 47 -64.5 98t-17.5 110v27h195v-18q0 -16 6 -35t16 -31q10 -16 34 -27.5t59 -11.5q43 0 65 19q35 25 35 69q0 29 -14.5 50.5t-35 37t-45 26.5t-42.5 21l-84 43q-47 25 -94.5 55.5t-81.5 84.5q-18 29 -29.5 67.5t-11.5 85.5zM276 745 q0 -41 25 -71q16 -20 43 -35.5t43 -26.5l96 -49q31 20 49 45q16 23 19.5 42.5t3.5 23.5q0 16 -5 36.5t-20 37.5q-16 20 -42.5 35.5t-43.5 25.5l-100 51q-12 -10 -27.5 -26.5t-25.5 -32.5q-14 -27 -15 -56z" />
<glyph unicode="&#xa8;" horiz-adv-x="737" d="M111 1204v195h194v-195h-194zM432 1204v195h195v-195h-195z" />
<glyph unicode="&#xa9;" horiz-adv-x="1396" d="M92 848q0 125 48 235.5t130 192.5t192.5 130t235.5 48t235.5 -48t192.5 -130t130.5 -192.5t48.5 -235.5t-48.5 -235.5t-130.5 -192.5t-192.5 -130t-235.5 -48t-235.5 48t-192.5 130t-130 192.5t-48 235.5zM219 848q0 -100 38 -187.5t102.5 -152t151.5 -102t187 -37.5 t187.5 37.5t152 102t102.5 152t38 187.5t-38 187t-102.5 151.5t-151.5 102.5t-188 38q-100 0 -187 -38t-151.5 -102.5t-102.5 -151.5t-38 -187zM475 735v226q0 49 11.5 87.5t52.5 71.5q37 31 77.5 41t81.5 10t82 -10t78 -41q41 -33 52.5 -71.5t11.5 -87.5v-19h-156v21 q0 10 -2 24t-12 27q-18 23 -54 22q-35 0 -53 -22q-10 -12 -12 -26.5t-2 -24.5v-230q0 -10 2 -24.5t12 -26.5q18 -23 53 -23q16 0 30.5 6.5t25.5 16.5q10 10 11 25.5t1 25.5v21h156v-19q0 -49 -11.5 -88t-52.5 -72q-37 -31 -78 -41t-82 -10t-82 10.5t-77 40.5 q-41 33 -52.5 72t-11.5 88z" />
<glyph unicode="&#xaa;" horiz-adv-x="847" d="M102 342v813q0 82 31 139.5t80 92t111.5 51t126.5 16.5q63 0 124.5 -18.5t107.5 -55.5t74.5 -93t28.5 -132v-129h-204v86q0 61 -35 101t-98 40q-59 0 -100.5 -31.5t-41.5 -84.5v-297h254v-185h-254v-321q0 -18 1 -44t13.5 -50.5t40 -42t80.5 -17.5q66 0 103 32t37 103v82 h204v-133q0 -47 -15 -97t-54 -92t-102.5 -68.5t-159.5 -26.5q-127 0 -198 38.5t-105.5 95t-42 119t-7.5 109.5z" />
<glyph unicode="&#xab;" horiz-adv-x="917" d="M72 567l415 414v-209l-206 -205l206 -205v-208zM451 567l415 414v-209l-207 -205l207 -205v-208z" />
<glyph unicode="&#xac;" horiz-adv-x="1404" d="M289 668v125h835v-461h-163v336h-672z" />
<glyph unicode="&#xad;" horiz-adv-x="643" d="M92 535v184h459v-184h-459z" />
<glyph unicode="&#xae;" horiz-adv-x="1396" d="M92 848q0 125 48 235.5t130 192.5t192.5 130t235.5 48t235.5 -48t192.5 -130t130.5 -192.5t48.5 -235.5t-48.5 -235.5t-130.5 -192.5t-192.5 -130t-235.5 -48t-235.5 48t-192.5 130t-130 192.5t-48 235.5zM219 848q0 -100 38 -187.5t102.5 -152t151.5 -102t187 -37.5 t187.5 37.5t152 102t102.5 152t38 187.5t-38 187t-102.5 151.5t-151.5 102.5t-188 38q-100 0 -187 -38t-151.5 -102.5t-102.5 -151.5t-38 -187zM494 524v647h225q37 0 79 -6t79 -35q41 -31 52 -68.5t11 -76.5v-39q0 -25 -6 -56.5t-33 -60.5q-4 -6 -16.5 -15t-30.5 -17 l115 -273h-168l-92 240h-60v-240h-155zM649 897h56q10 0 28.5 2t32.5 16q18 18 18 50q0 39 -22 55q-14 10 -29.5 13t-27.5 3h-56v-139z" />
<glyph unicode="&#xaf;" horiz-adv-x="450" d="M-33 1565v204h195v-204h-195zM123 0v1434h205v-1434h-205zM289 1565v204h194v-204h-194z" />
<glyph unicode="&#xb0;" horiz-adv-x="675" d="M51 1112q0 41 16.5 98.5t69.5 108.5q45 43 97.5 61.5t103.5 18.5q55 0 110.5 -20.5t98.5 -67.5q35 -37 56.5 -87t21.5 -112q0 -59 -19.5 -108.5t-50.5 -83.5q-35 -41 -92 -68t-125 -27q-59 0 -109.5 19.5t-85.5 52.5q-39 35 -65.5 91t-26.5 124zM174 1112q0 -68 48 -116 t116 -48t116 48t48 116t-48 116t-116 48t-116 -48t-48 -116z" />
<glyph unicode="&#xb1;" horiz-adv-x="1052" d="M123 0v164h807v-164h-807zM123 514v164h321v321h164v-321h322v-164h-322v-260h-164v260h-321z" />
<glyph unicode="&#xb2;" horiz-adv-x="450" d="M123 0v1434h205v-1434h-205z" />
<glyph unicode="&#xb3;" horiz-adv-x="425" d="M111 0v1016h204v-1016h-204zM111 1204v201h204v-201h-204z" />
<glyph unicode="&#xb4;" horiz-adv-x="493" d="M143 1184l90 250h220l-193 -250h-117z" />
<glyph unicode="&#xb5;" horiz-adv-x="860" d="M111 -418v1434h204v-719q0 -18 4.5 -42t26.5 -44q27 -27 70 -27q25 0 50.5 9.5t43.5 27.5q25 25 30 51.5t5 46.5v697h205v-1016h-205v102q-6 -14 -17.5 -34.5t-29 -39t-43 -31.5t-60.5 -13q-27 0 -45 8t-35 18v-428h-204z" />
<glyph unicode="&#xb6;" horiz-adv-x="1003" d="M76 887v246q0 96 33.5 149t62.5 76q41 35 107.5 55.5t132.5 20.5h561v-144h-125v-1708h-148v1708h-151v-1708h-148v1006h-24q-23 0 -50.5 3t-56 11t-57.5 23.5t-55 42.5q-55 53 -68.5 114.5t-13.5 104.5z" />
<glyph unicode="&#xb7;" horiz-adv-x="696" d="M205 717q0 59 42 101t101 42t101.5 -42t42.5 -101t-42 -101.5t-102 -42.5q-59 0 -101 42.5t-42 101.5z" />
<glyph unicode="&#xb8;" horiz-adv-x="817" d="M102 328v389q0 27 3.5 58.5t14.5 63t30.5 63.5t52.5 61q35 31 86 50t117 19t120 -19.5t92 -54.5q33 -29 53.5 -62.5t32 -67t14.5 -66.5t3 -64v-266h-414v-131q0 -23 4 -46.5t23 -41.5q25 -29 78 -29t82 43q18 31 18 70h205v-8q0 -29 -4 -60.5t-16.5 -64.5t-35 -64.5 t-59.5 -58.5q-39 -29 -88 -43t-102 -14q-72 0 -133.5 26.5t-102.5 71.5q-27 31 -42 63.5t-22.5 65.5t-8.5 63.5t-1 53.5zM147 1186v217h209v-217h-209zM307 590h209v133q0 20 -5 40.5t-24 39.5q-29 29 -75 28q-51 0 -80 -34q-16 -18 -20.5 -40t-4.5 -42v-125zM467 1186v217 h209v-217h-209z" />
<glyph unicode="&#xb9;" horiz-adv-x="1550" d="M123 0v1434h205l342 -902v902h204v-1434h-204l-342 901v-901h-205zM1024 233v150h434v-150h-434zM1024 717v313q0 47 12.5 88t48.5 76q35 33 76 43t80 10t80 -10t76 -43q37 -35 49 -76t12 -88v-313q0 -47 -12 -88t-49 -76q-35 -33 -76 -43t-80 -10t-80 10t-76 43 q-37 35 -49 76t-12 88zM1184 715q0 -8 1 -22.5t11 -24.5q18 -18 45 -19q27 0 45 19q10 10 11 24.5t1 22.5v317q0 8 -1 22.5t-11 24.5q-18 18 -45 19q-27 0 -45 -19q-10 -10 -11 -24.5t-1 -22.5v-317z" />
<glyph unicode="&#xba;" horiz-adv-x="776" d="M92 342v350q0 31 3 65t12.5 68.5t28 68.5t50.5 62q33 29 84.5 52.5t126.5 23.5q74 0 135.5 -23.5t100.5 -64.5q41 -43 61.5 -106.5t20.5 -122.5v-6h-205v16q0 16 -6 34.5t-17 33.5q-10 16 -30.5 27t-50.5 11q-18 0 -40 -6t-40 -28q-18 -23 -23.5 -47.5t-5.5 -51.5v-92 h201v-184h-201v-117q0 -23 5 -46t20 -40q8 -10 27.5 -22.5t56.5 -12.5q16 0 39.5 6.5t41.5 28.5q10 12 16.5 31.5t6.5 36.5v16h205v-18q0 -45 -9.5 -82t-24.5 -64.5t-33.5 -49t-35.5 -36.5q-35 -29 -85 -49t-119 -20q-70 0 -132.5 22.5t-103.5 65.5q-31 31 -47 64.5 t-23.5 68.5t-8.5 69.5t-1 67.5z" />
<glyph unicode="&#xbb;" horiz-adv-x="917" d="M51 154v208l207 205l-207 205v209l416 -414zM430 154v208l207 205l-207 205v209l416 -414z" />
<glyph unicode="&#xbc;" horiz-adv-x="430" d="M-31 -217h37q33 0 52.5 10t29.5 21q20 23 23.5 47t3.5 43v1112h204v-1112q0 -57 -6 -122t-59 -124q-51 -55 -109.5 -65.5t-109.5 -10.5h-66v201zM115 1204v201h204v-201h-204z" />
<glyph unicode="&#xbd;" horiz-adv-x="901" d="M92 346v47h205v-39q0 -25 5 -61.5t28 -65.5q27 -33 59.5 -40t52.5 -7q59 0 88 17.5t41 33.5q23 29 28 69t5 73v53q0 37 -6 78t-27 69q-20 29 -51 43.5t-47 20.5l-149 53q-55 20 -106.5 54t-82.5 106q-23 49 -27 102.5t-4 106.5v41q0 90 31 156.5t76 109.5 q51 49 113.5 68.5t134.5 19.5q154 0 248 -95t94 -276v-47h-205v39q0 23 -5 62t-30 69q-14 16 -38.5 31.5t-69.5 15.5q-23 0 -49.5 -7t-51.5 -32q-29 -31 -36 -70.5t-7 -74.5q0 -29 6.5 -75t26.5 -74q16 -27 44 -40.5t50 -23.5l125 -45q47 -16 96.5 -42t90.5 -81 q41 -57 51 -118.5t10 -129.5v-49q0 -111 -26.5 -190.5t-71.5 -126.5q-41 -41 -108.5 -67.5t-158.5 -26.5q-111 0 -181 37.5t-105 86.5q-25 33 -38.5 72t-19.5 75t-7 62.5t-1 32.5z" />
<glyph unicode="&#xbe;" horiz-adv-x="759" d="M61 285h205q0 -20 6.5 -41t20.5 -37t37.5 -24.5t46.5 -8.5t43 8t37 27q16 18 21 39.5t5 42.5q0 41 -18.5 70.5t-83.5 58.5l-121 51q-59 25 -88 50.5t-39 35.5q-35 41 -45 87t-10 85q0 76 21.5 131t54.5 90q31 31 83 56.5t136 25.5q98 0 154.5 -26.5t82.5 -55.5 q37 -37 57.5 -93t20.5 -116h-201q-4 45 -30 74q-27 27 -74 27q-39 0 -69.5 -24.5t-30.5 -78.5q0 -14 4 -31.5t16 -33.5q16 -23 37.5 -34t42.5 -19l123 -52q39 -16 73.5 -42.5t57.5 -55.5t37 -75t14 -111q0 -37 -12 -92.5t-53 -106.5q-33 -41 -91.5 -71.5t-156.5 -30.5 q-92 0 -149.5 27.5t-88.5 62.5q-39 41 -57.5 98t-18.5 113z" />
<glyph unicode="&#xbf;" horiz-adv-x="425" d="M-45 1204v195h195v-195h-195zM111 0v1016h204v-1016h-204zM276 1204v195h195v-195h-195z" />
<glyph unicode="&#xc0;" horiz-adv-x="841" d="M20 0l314 1434h180l313 -1434h-204l-68 307h-262l-68 -307h-205zM313 489h217l-110 545z" />
<glyph unicode="&#xc1;" horiz-adv-x="882" d="M123 0v1434h622v-195h-417v-385h100q31 0 65.5 -1t71.5 -8t75 -23.5t73 -49.5q33 -31 51 -64.5t26.5 -65.5t9.5 -59.5t1 -47.5v-168q0 -53 -9.5 -111.5t-50.5 -120.5q-14 -23 -37.5 -46t-59.5 -42.5t-88 -33t-122 -13.5h-311zM328 184h92q23 0 64.5 9.5t74.5 54.5 q20 29 28.5 70.5t8.5 78.5v78q0 53 -10.5 91t-44.5 67q-45 37 -109 37h-104v-486z" />
<glyph unicode="&#xc2;" horiz-adv-x="903" d="M123 0v1434h276q23 0 55.5 -2t69.5 -9.5t74 -20.5t72 -38q49 -35 75.5 -79t39 -89t14.5 -88t2 -74q0 -72 -10.5 -124t-51.5 -99q-20 -25 -40.5 -40t-36.5 -26q41 -18 62 -42.5t36 -47.5q31 -53 36 -91t5 -89v-108q0 -23 -2 -60t-13.5 -78t-37 -84t-70.5 -77 q-35 -27 -93.5 -47.5t-150.5 -20.5h-311zM328 184h92q23 0 64.5 9.5t74.5 54.5q12 18 20.5 39.5t11.5 42t4 37t1 26.5v68q0 53 -10.5 91t-44.5 66q-45 37 -109 37h-104v-471zM328 840h98q53 0 84 17t47 36q18 23 28.5 55.5t10.5 67.5v88q0 29 -11.5 54.5t-27.5 43.5 q-18 18 -50 32.5t-83 14.5h-96v-409z" />
<glyph unicode="&#xc3;" horiz-adv-x="735" d="M123 0v1434h622v-195h-417v-1239h-205z" />
<glyph unicode="&#xc4;" horiz-adv-x="917" d="M-10 184h96q35 76 61.5 160t42.5 182q12 74 21.5 173.5t13.5 208t6 218t2 203.5v105h558v-1250h116v-405h-194v221h-529v-221h-194v405zM295 174h291v1075h-160v-112q0 -131 -4 -234.5t-10 -185.5t-14.5 -144.5t-16.5 -109.5q-12 -74 -31.5 -142.5t-54.5 -146.5z" />
<glyph unicode="&#xc5;" horiz-adv-x="808" d="M123 0v1434h608v-195h-403v-422h356v-184h-356v-438h409v-195h-614z" />
<glyph unicode="&#xc6;" horiz-adv-x="1339" d="M47 1266v184h37q41 0 93 -7t97 -46q47 -41 61.5 -99.5t20.5 -117.5l15 -129q8 -76 16 -118t29 -71q29 -43 76 -43h75v615h205v-615h76q47 0 76 43q20 29 28.5 71t16.5 118l14 129q6 59 20.5 117.5t61.5 99.5q45 39 97 46t93 7h37v-184h-32q-12 0 -27.5 -6.5t-26.5 -16.5 q-16 -16 -24 -49t-17 -102l-14 -138q-4 -41 -9 -79.5t-20 -73.5q-16 -39 -45 -60l213 -741h-223l-174 643h-121v-643h-205v643h-121l-174 -643h-223l213 741q-29 20 -45 60q-14 35 -19 73.5t-10 79.5l-14 138q-8 70 -16 102.5t-25 48.5q-10 10 -25.5 16.5t-27.5 6.5h-33z " />
<glyph unicode="&#xc7;" horiz-adv-x="847" d="M61 264v133h205v-82q0 -23 8.5 -52.5t24.5 -45.5q18 -20 50 -28.5t57 -8.5q39 0 62.5 9.5t35.5 21.5q29 27 33 57.5t4 65.5v127q0 14 -1 35.5t-7.5 45t-17.5 45t-30 38.5q-10 10 -35.5 20t-72.5 10h-62v185h56q41 0 74.5 13t56.5 36q29 31 34 68.5t5 58.5v92 q0 23 -5.5 55.5t-35.5 59.5q-37 31 -101 30q-57 0 -94 -36q-27 -25 -33 -53.5t-6 -51.5v-86h-205v129q0 20 3.5 49t14.5 59.5t32.5 61.5t58.5 59q35 29 91 49.5t136 20.5q61 0 125 -15.5t111 -49.5q14 -10 33.5 -29t37 -47.5t29.5 -67.5t12 -90v-121q0 -57 -9 -114.5 t-52 -108.5q-37 -39 -82 -66q45 -23 68.5 -47t34.5 -43q29 -47 34.5 -92t5.5 -92v-168q0 -59 -15 -121.5t-75 -118.5q-57 -53 -124.5 -68t-137.5 -15q-57 0 -122.5 13t-120.5 64q-6 4 -20.5 19.5t-30 42t-27 62.5t-11.5 83z" />
<glyph unicode="&#xc8;" horiz-adv-x="993" d="M123 0v1434h205v-881l338 717v164h204v-1434h-204v881l-338 -717v-164h-205z" />
<glyph unicode="&#xc9;" horiz-adv-x="993" d="M123 0v1434h205v-881l338 717v164h204v-1434h-204v881l-338 -717v-164h-205zM248 1753v25h164v-19q0 -12 4 -27.5t20 -29.5q14 -12 29.5 -15.5t32.5 -3.5q16 0 31.5 3.5t29.5 15.5q16 14 20.5 29.5t4.5 27.5v19h164v-25q0 -61 -19.5 -101t-42.5 -63q-31 -29 -80 -43 t-108 -14t-108.5 14.5t-80.5 42.5q-23 23 -42 63t-19 101z" />
<glyph unicode="&#xca;" horiz-adv-x="946" d="M123 0v1434h205v-615h116q47 0 76 43q20 29 28.5 71t16.5 118l15 129q6 59 20 117.5t62 99.5q45 39 97 46t93 7h31v-184h-27q-12 0 -27.5 -6.5t-25.5 -16.5q-16 -16 -24.5 -49t-16.5 -102l-14 -138q-4 -41 -9.5 -79.5t-19.5 -73.5q-16 -39 -45 -60l221 -741h-223 l-178 635h-166v-635h-205z" />
<glyph unicode="&#xcb;" horiz-adv-x="921" d="M-10 0v195h22q16 0 37 3t43 17q37 23 52.5 53.5t19.5 40.5q8 27 15 75t12.5 101.5t8.5 101.5t5 75q2 43 4 82.5t4 83.5t4 97.5t2 123.5l6 385h574v-1434h-205v1249h-164l-6 -200q-4 -94 -6 -165t-3 -126.5t-4 -100.5t-5 -88q-8 -115 -16.5 -176t-14.5 -90 q-10 -53 -30.5 -103t-68.5 -104q-57 -61 -116.5 -78.5t-122.5 -17.5h-47z" />
<glyph unicode="&#xcc;" horiz-adv-x="1214" d="M123 0v1434h205l282 -791h8l269 791h205v-1434h-205v897h-10l-215 -647h-109l-215 647h-10v-897h-205z" />
<glyph unicode="&#xcd;" horiz-adv-x="931" d="M123 0v1434h205v-617h276v617h205v-1434h-205v633h-276v-633h-205z" />
<glyph unicode="&#xce;" horiz-adv-x="921" d="M102 377v680q0 82 16.5 158.5t90.5 146.5q47 43 109.5 67.5t142.5 24.5t142.5 -24.5t109.5 -67.5q74 -70 90 -146.5t16 -158.5v-680q0 -82 -16.5 -159t-89.5 -146q-47 -43 -109.5 -67.5t-142.5 -24.5t-142.5 24.5t-109.5 67.5q-74 70 -90.5 146.5t-16.5 158.5zM307 346 q0 -33 7.5 -64.5t35.5 -60.5q16 -16 44 -28.5t67 -12.5t66.5 12.5t43.5 28.5q29 29 36 60.5t7 64.5v741q0 33 -7 65t-36 60q-16 16 -43.5 28.5t-66.5 12.5t-66.5 -12t-44.5 -29q-29 -29 -36 -60.5t-7 -64.5v-741z" />
<glyph unicode="&#xcf;" horiz-adv-x="921" d="M123 0v1434h676v-1434h-205v1249h-266v-1249h-205z" />
<glyph unicode="&#xd0;" horiz-adv-x="880" d="M123 0v1434h305q33 0 70 -2t73.5 -11.5t72.5 -29t71 -52.5q70 -72 87 -159.5t17 -167.5v-41q0 -31 -2 -67t-11 -74.5t-26.5 -76.5t-48.5 -73q-31 -37 -66.5 -58.5t-72.5 -34t-74 -16.5t-69 -4h-121v-567h-205zM328 752h110q29 0 67 9t70 44q33 35 36 71.5t3 75.5v95 q0 37 -6 84t-49 81q-35 29 -77 33t-83 4h-71v-497z" />
<glyph unicode="&#xd1;" horiz-adv-x="858" d="M102 346v744q0 70 17.5 145.5t87.5 134.5q47 43 111.5 63.5t121.5 20.5q66 0 133.5 -23.5t114.5 -68.5q39 -39 65.5 -100.5t26.5 -137.5v-98h-198v82q0 23 -6.5 48.5t-20.5 45.5q-8 10 -32.5 30.5t-73.5 20.5q-41 0 -66 -14t-41 -33q-25 -31 -30 -67.5t-5 -73.5v-707 q0 -35 3 -66.5t24 -60.5q10 -16 35.5 -33.5t68.5 -17.5q35 0 66 12.5t49 36.5q8 10 18.5 37t10.5 80v51h204v-59q0 -106 -28.5 -170t-57.5 -92q-33 -35 -97 -65.5t-171 -30.5q-102 0 -162.5 33.5t-95.5 74.5q-55 66 -63.5 134.5t-8.5 123.5z" />
<glyph unicode="&#xd2;" horiz-adv-x="724" d="M6 1239v195h713v-195h-254v-1239h-205v1239h-254z" />
<glyph unicode="&#xd3;" horiz-adv-x="782" d="M6 1434h234l196 -703h6q4 29 10.5 67t13.5 77.5t15 78.5t15 70l90 410h211l-244 -979q-16 -59 -30.5 -122t-34 -119t-49 -102t-74.5 -73q-47 -29 -91.5 -34t-85.5 -5h-73v195h51q63 0 94 34q12 12 24.5 39t16.5 47l27 121z" />
<glyph unicode="&#xd4;" horiz-adv-x="1249" d="M82 600v248q0 39 3 82t13.5 86t32 83t55.5 77q33 33 70 52t74 28.5t73.5 11.5t69.5 2h49v184h205v-184h49q33 0 70 -2t73.5 -11.5t72.5 -29t71 -51.5q70 -72 87 -160t17 -168v-248q0 -31 -2 -66.5t-11 -74.5t-26.5 -78t-48.5 -72q-35 -41 -74.5 -63.5t-78.5 -33.5 t-73 -14t-56 -3h-70v-195h-205v195h-69q-23 0 -57 3t-72.5 14t-78.5 33.5t-75 63.5q-31 33 -48.5 72t-26.5 78t-11 74.5t-2 66.5zM287 582q0 -39 3 -75t36 -73q35 -37 70.5 -44t66.5 -7h59v700h-20q-41 0 -83 -4t-77 -32q-43 -35 -49 -82t-6 -84v-299zM727 383h59q31 0 67 7 t71 44q33 37 36 73t3 75v299q0 37 -6.5 84t-49.5 82q-35 29 -77 32.5t-82 3.5h-21v-700z" />
<glyph unicode="&#xd5;" horiz-adv-x="894" d="M31 0l301 758l-269 676h218l163 -451l166 451h226l-277 -676l305 -758h-217l-203 518l-188 -518h-225z" />
<glyph unicode="&#xd6;" horiz-adv-x="925" d="M123 0v1434h205v-1250h256v1250h204v-1250h127v-405h-194v221h-598z" />
<glyph unicode="&#xd7;" horiz-adv-x="878" d="M92 907v527h205v-482q0 -33 5 -83t34 -83q23 -23 50.5 -29.5t49.5 -6.5q29 0 57.5 6t57.5 22v656h205v-1434h-205v594q-33 -12 -71 -20.5t-87 -8.5q-51 0 -90 9.5t-66.5 22.5t-46 28.5t-26.5 25.5q-25 27 -39 60.5t-21.5 68.5t-9.5 68t-2 59z" />
<glyph unicode="&#xd8;" horiz-adv-x="1310" d="M123 0v1434h205v-1250h225v1250h205v-1250h225v1250h205v-1434h-1065z" />
<glyph unicode="&#xd9;" horiz-adv-x="1325" d="M123 0v1434h205v-1250h225v1250h205v-1250h225v1250h205v-1250h127v-405h-195v221h-997z" />
<glyph unicode="&#xda;" horiz-adv-x="1040" d="M20 1239v195h465v-580h101q31 0 65.5 -1t71.5 -8t75 -23.5t72 -49.5q33 -31 51.5 -64.5t26.5 -65.5t9 -59.5t1 -47.5v-168q0 -53 -9 -111.5t-50 -120.5q-14 -23 -37.5 -46t-59.5 -42.5t-88 -33t-122 -13.5h-311v1239h-261zM485 184h93q20 0 49.5 5.5t57.5 27t48.5 63.5 t20.5 117v78q0 53 -10.5 91t-45.5 67q-45 37 -108 37h-105v-486z" />
<glyph unicode="&#xdb;" horiz-adv-x="1294" d="M123 0v1434h205v-580h100q31 0 65.5 -1t71.5 -8t75 -23.5t73 -49.5q33 -31 51 -64.5t26.5 -65.5t9.5 -59.5t1 -47.5v-168q0 -53 -9.5 -111.5t-50.5 -120.5q-14 -23 -37.5 -46t-59.5 -42.5t-88 -33t-122 -13.5h-311zM328 184h92q20 0 50 5.5t57.5 27t48 63.5t20.5 117v78 q0 53 -10.5 91t-44.5 67q-45 37 -109 37h-104v-486zM967 0v1434h204v-1434h-204z" />
<glyph unicode="&#xdc;" horiz-adv-x="882" d="M123 0v1434h205v-580h100q31 0 65.5 -1t71.5 -8t75 -23.5t73 -49.5q33 -31 51 -64.5t26.5 -65.5t9.5 -59.5t1 -47.5v-168q0 -53 -9.5 -111.5t-50.5 -120.5q-14 -23 -37.5 -46t-59.5 -42.5t-88 -33t-122 -13.5h-311zM328 184h92q20 0 50 5.5t57.5 27t48 63.5t20.5 117v78 q0 53 -10.5 91t-44.5 67q-45 37 -109 37h-104v-486z" />
<glyph unicode="&#xdd;" horiz-adv-x="847" d="M61 264v133h205v-82q0 -72 37 -103.5t103 -31.5q53 0 80.5 17.5t40 42t13.5 50t1 44.5v321h-254v185h254v297q0 53 -41 84.5t-101 31.5q-63 0 -98 -39.5t-35 -101.5v-86h-205v129q0 76 29 132t75 93t106.5 55.5t125.5 18.5q63 0 126 -16.5t112 -51t79.5 -92t30.5 -139.5 v-813q0 -47 -7 -109.5t-41.5 -119t-105.5 -95t-198 -38.5q-96 0 -159.5 26.5t-102.5 68.5t-54.5 92t-15.5 97z" />
<glyph unicode="&#xde;" horiz-adv-x="1316" d="M123 0v1434h205v-617h170v240q0 82 16 158.5t90 146.5q47 43 109.5 67.5t142.5 24.5t142.5 -24.5t109.5 -67.5q74 -70 90 -146.5t16 -158.5v-680q0 -82 -16 -159t-90 -146q-47 -43 -109.5 -67.5t-142.5 -24.5t-142.5 24.5t-109.5 67.5q-74 70 -90 146.5t-16 158.5v256 h-170v-633h-205zM702 346q0 -33 7.5 -64.5t35.5 -60.5q16 -16 44 -28.5t67 -12.5t66.5 12.5t44.5 28.5q29 29 36 60.5t7 64.5v741q0 33 -7.5 65t-35.5 60q-16 16 -44 28.5t-67 12.5t-66.5 -12t-44.5 -29q-29 -29 -36 -60.5t-7 -64.5v-741z" />
<glyph unicode="&#xdf;" horiz-adv-x="909" d="M51 0l213 666q-37 16 -60.5 37.5t-37.5 39.5q-29 39 -47.5 99.5t-18.5 120.5v108q0 80 20.5 143.5t55.5 106.5q37 45 81 67.5t92 33t94 11.5t85 1h258v-1434h-204v618h-127l-185 -618h-219zM305 979q0 -41 6 -70.5t37 -58.5q29 -29 60.5 -38t66.5 -9h107v446h-97 q-33 0 -67.5 -3t-65.5 -34q-20 -20 -33.5 -55t-13.5 -76v-102z" />
<glyph unicode="&#xe0;" horiz-adv-x="829" d="M92 270q0 27 2 61t8.5 67.5t18.5 66.5t35 59q25 31 57.5 48.5t66 26.5t64.5 11t53 2q10 0 40 -1t77 -5v107q0 23 -4 44t-23 42q-31 33 -81 32q-23 0 -44.5 -8t-37.5 -28q-25 -27 -27 -66h-195q-2 70 24 127t60 92q39 39 98.5 61.5t131.5 22.5q70 0 125 -22.5t94 -59.5 q55 -55 69.5 -120.5t14.5 -118.5v-711h-205v100h-4q-10 -16 -28.5 -38.5t-41.5 -38.5q-29 -23 -57.5 -31t-60.5 -8q-31 0 -74 9t-82 44q-47 45 -60.5 108.5t-13.5 124.5zM297 299q0 -23 4 -43t16 -41q29 -47 82 -47q47 0 81 31.5t34 99.5v143q-37 6 -72 7q-25 0 -57.5 -7.5 t-56.5 -35.5q-20 -23 -25.5 -52.5t-5.5 -54.5z" />
<glyph unicode="&#xe1;" horiz-adv-x="811" d="M96 328v516q0 76 11.5 155.5t52.5 145.5q35 55 81 82.5t91 46.5q20 8 33.5 13t23.5 9t18.5 7.5t18.5 7.5q16 6 34.5 15t31.5 24q18 18 18 51v33h188v-62q0 -29 -3 -58.5t-15 -56.5q-18 -43 -48 -61t-61 -29q-39 -14 -69 -22q-23 -6 -45.5 -12.5t-44.5 -14.5 q-25 -10 -54.5 -25.5t-50.5 -43.5q-20 -27 -28.5 -61t-8.5 -62v-35h6q25 55 81.5 90t125.5 35q55 0 94 -16.5t68 -43.5q29 -29 49.5 -73.5t20.5 -98.5v-456q0 -31 -2 -66t-12.5 -70.5t-31 -70.5t-55.5 -66q-41 -35 -96 -53t-112 -18t-112.5 18t-96.5 53q-35 31 -55.5 66 t-31 70.5t-12.5 70.5t-2 66zM301 315q0 -68 31 -102q29 -29 74 -29q23 0 42 8.5t31 20.5q31 35 31 102v385q0 68 -31 103q-29 29 -73 28q-45 0 -74 -28q-31 -35 -31 -103v-385z" />
<glyph unicode="&#xe2;" horiz-adv-x="817" d="M111 0v1016h338q66 0 116.5 -20.5t83.5 -53.5q35 -35 51.5 -85t16.5 -91v-49q0 -33 -8.5 -73t-40.5 -77q-8 -10 -27.5 -25.5t-52.5 -25.5q18 -6 43.5 -20.5t50.5 -46.5q27 -35 35 -73t8 -73v-47q0 -72 -26.5 -119t-55.5 -71q-49 -45 -106.5 -55.5t-114.5 -10.5h-311z M315 184h95q20 0 44.5 6.5t43.5 28.5q16 16 19 35.5t3 36.5v37q0 16 -4 37.5t-20 37.5q-18 20 -41 25.5t-45 5.5h-95v-250zM315 598h91q23 0 43 5t38 28q16 20 20.5 41.5t4.5 40.5v20q0 35 -10 51.5t-15 20.5q-16 18 -38.5 22t-42.5 4h-91v-233z" />
<glyph unicode="&#xe3;" horiz-adv-x="626" d="M111 0v1016h510v-201h-306v-815h-204z" />
<glyph unicode="&#xe4;" horiz-adv-x="847" d="M-4 184h106q35 76 53.5 143.5t28.5 143.5q6 43 10.5 97.5t7.5 109.5t5 109.5t2 101.5v127h522v-832h117v-389h-195v205h-463v-205h-194v389zM301 174h225v657h-131v-73q0 -84 -4 -168t-20 -176q-10 -57 -25.5 -115.5t-44.5 -124.5z" />
<glyph unicode="&#xe5;" horiz-adv-x="813" d="M102 328v389q0 27 3.5 58.5t14.5 63t30.5 63.5t52.5 61q35 31 86 50t117 19t120 -19.5t92 -54.5q33 -29 53.5 -62.5t32 -67t14.5 -66.5t3 -64v-266h-414v-131q0 -23 4 -46.5t23 -41.5q25 -29 78 -29t82 43q18 31 18 70h205v-8q0 -29 -4 -60.5t-16.5 -64.5t-35 -64.5 t-59.5 -58.5q-39 -29 -88 -43t-102 -14q-72 0 -133.5 26.5t-102.5 71.5q-27 31 -42 63.5t-22.5 65.5t-8.5 63.5t-1 53.5zM307 590h209v133q0 20 -5 40.5t-24 39.5q-29 29 -75 28q-51 0 -80 -34q-16 -18 -20.5 -40t-4.5 -42v-125z" />
<glyph unicode="&#xe6;" horiz-adv-x="1179" d="M41 0l192 520q-29 16 -45 51q-10 25 -14 52.5t-8 62.5l-10 76q-4 31 -10.5 46t-12.5 23q-8 8 -21.5 14.5t-31.5 6.5h-31v174h51q49 0 96.5 -11t79.5 -57q23 -29 33 -65.5t15 -65.5l12 -73q4 -27 8 -48.5t18 -50.5q14 -31 31 -42t56 -11h38v414h205v-414h39 q39 0 55.5 11.5t30.5 41.5q14 29 18.5 50.5t8.5 48.5l12 73q4 29 14.5 66t32.5 65q33 45 80 56.5t96 11.5h51v-174h-30q-18 0 -31.5 -6t-21.5 -15q-6 -8 -12.5 -23t-10.5 -46l-10 -76q-4 -35 -8.5 -62.5t-14.5 -52.5q-16 -35 -45 -51l193 -520h-211l-148 438h-88v-438h-205 v438h-88l-147 -438h-211z" />
<glyph unicode="&#xe7;" horiz-adv-x="772" d="M61 264v39h197v-20q0 -37 23 -64q18 -23 40.5 -29t40.5 -6q37 0 57.5 11.5t31.5 23.5q14 16 19 40t5 46v19q0 33 -10 50t-21 25q-16 14 -37.5 20.5t-39.5 6.5h-72v176h65q29 0 49.5 9.5t32.5 23.5q25 29 25 76v10q0 45 -25 76q-16 23 -37.5 28.5t-37.5 5.5 q-29 0 -49.5 -9t-32.5 -23q-16 -18 -21.5 -38t-5.5 -38v-14h-197v20q0 80 26 133t52 82q41 41 100.5 64.5t135.5 23.5q74 0 126 -23.5t85 -52.5q29 -29 57.5 -79t28.5 -132v-28q0 -41 -9.5 -75t-25.5 -58q-10 -16 -29.5 -35t-50.5 -33q31 -12 51.5 -30.5t32.5 -36.5 q27 -37 33 -77t6 -69v-27q0 -57 -22.5 -112t-57.5 -92q-41 -41 -102.5 -64.5t-132.5 -23.5q-53 0 -115 19.5t-103 57.5q-35 33 -60.5 86.5t-25.5 116.5z" />
<glyph unicode="&#xe8;" horiz-adv-x="882" d="M111 0v1016h204v-567l252 442v125h205v-1016h-205v567l-252 -442v-125h-204z" />
<glyph unicode="&#xe9;" horiz-adv-x="882" d="M111 0v1016h204v-567l252 442v125h205v-1016h-205v567l-252 -442v-125h-204zM207 1395v26h151v-30q0 -10 2 -23.5t7 -21.5q4 -12 21.5 -26.5t51.5 -14.5q35 0 52.5 14t21.5 27q4 8 6 21t2 24v30h152v-26q0 -41 -10.5 -89.5t-51.5 -88.5q-39 -39 -87 -48.5t-85 -9.5 t-85 9.5t-87 48.5q-41 41 -51 89t-10 89z" />
<glyph unicode="&#xea;" horiz-adv-x="825" d="M111 0v1016h204v-410h66q33 0 51.5 9.5t34.5 39.5q12 25 17 50.5t10 48.5l12 73q4 29 14 66t33 65q33 45 80 56.5t96 11.5h47v-174h-26q-18 0 -31.5 -6t-22.5 -15q-6 -8 -12 -23t-10 -46l-10 -76q-4 -35 -8.5 -63.5t-14.5 -51.5q-10 -20 -20.5 -31.5t-20.5 -19.5 l184 -520h-206l-148 434h-115v-434h-204z" />
<glyph unicode="&#xeb;" horiz-adv-x="833" d="M0 0v172h25q33 0 60.5 18.5t43.5 42.5q18 27 28.5 79.5t20.5 166.5q2 25 5 73t5 98t4.5 96.5t2.5 68.5l4 201h524v-1016h-205v831h-131l-2 -65q0 -27 -2 -79t-6 -115.5t-10.5 -129t-14.5 -116.5q-6 -33 -14 -69t-21.5 -70.5t-33 -66.5t-47.5 -57q-33 -27 -81.5 -45 t-107.5 -18h-47z" />
<glyph unicode="&#xec;" horiz-adv-x="1036" d="M111 0v1016h188l217 -567h4l217 567h189v-1016h-193v578l-172 -433h-86l-172 433v-578h-192z" />
<glyph unicode="&#xed;" d="M111 0v1016h204v-410h209v410h205v-1016h-205v422h-209v-422h-204z" />
<glyph unicode="&#xee;" horiz-adv-x="802" d="M92 328v360q0 31 2 65.5t12.5 70.5t31 71t55.5 66q41 35 96 53t112 18t112.5 -18.5t96.5 -52.5q35 -31 55.5 -66t31 -71t12.5 -70.5t2 -65.5v-360q0 -31 -2 -66t-12.5 -70.5t-31 -70.5t-55.5 -66q-41 -35 -96 -53t-113 -18q-57 0 -112.5 18t-95.5 53q-35 31 -55.5 66 t-31 70.5t-12.5 70.5t-2 66zM297 315q0 -68 31 -102q29 -29 73 -29q23 0 42.5 8.5t31.5 20.5q31 35 31 102v385q0 68 -31 103q-29 29 -74 28q-45 0 -73 -28q-31 -35 -31 -103v-385z" />
<glyph unicode="&#xef;" horiz-adv-x="827" d="M111 0v1016h606v-1016h-205v831h-197v-831h-204z" />
<glyph unicode="&#xf0;" d="M111 -418v1434h204v-90h2q12 20 31 38.5t39 32.5q29 18 61.5 26.5t63.5 8.5q39 0 67.5 -9t49 -21.5t34 -25.5t19.5 -22q35 -47 41 -104t6 -107v-528q0 -37 -9 -84t-50 -88q-31 -33 -69 -46t-83 -13t-75.5 11t-59.5 28q-39 23 -68 59v-500h-204zM315 319q0 -25 5.5 -51 t27.5 -51q10 -10 29.5 -21.5t48.5 -11.5q43 0 72 31q18 20 22 42t4 40v412q0 27 -3 48t-23 44q-29 31 -72 30q-29 0 -48.5 -11t-29.5 -21q-23 -25 -28 -51.5t-5 -51.5v-377z" />
<glyph unicode="&#xf1;" horiz-adv-x="786" d="M102 342v350q0 31 3.5 65t12.5 68.5t27.5 68.5t51.5 62q33 29 84 52.5t127 23.5q74 0 135 -23.5t100 -64.5q41 -43 61.5 -106.5t20.5 -122.5v-6h-205v14q0 41 -22 70q-10 16 -31 27t-51 11q-18 0 -40 -6t-40 -28q-18 -23 -23.5 -47.5t-5.5 -51.5v-393q0 -23 5 -46t20 -40 q8 -10 27.5 -22.5t56.5 -12.5q23 0 44 6.5t38 28.5q14 16 18 33.5t4 34.5v16h205v-18q0 -45 -9 -82t-24.5 -64.5t-34 -49t-34.5 -36.5q-35 -29 -85.5 -49t-119.5 -20q-70 0 -132.5 22.5t-103.5 65.5q-31 31 -47 64.5t-23.5 68.5t-8.5 69.5t-1 67.5z" />
<glyph unicode="&#xf2;" horiz-adv-x="655" d="M20 831v185h615v-185h-205v-831h-205v831h-205z" />
<glyph unicode="&#xf3;" horiz-adv-x="761" d="M20 1016h222l166 -631h8l127 631h205l-279 -1153q-10 -45 -29.5 -108.5t-64.5 -108.5q-47 -45 -102.5 -54.5t-102.5 -9.5h-53l-4 191h39q23 0 48 7t48 36q6 8 15 28.5t22 69.5l32 133z" />
<glyph unicode="&#xf4;" horiz-adv-x="1134" d="M92 215v528q0 53 7 105.5t48 105.5q41 51 86.5 64.5t77.5 13.5q29 0 52.5 -8t42.5 -18q16 -10 30.5 -22.5t28.5 -33.5v484h205v-484q14 20 28.5 32.5t30.5 23.5q18 10 42 18t52 8q33 0 78 -13t86 -65q41 -53 48 -105t7 -106v-528q0 -59 -19 -104t-48 -74 q-23 -20 -56.5 -36.5t-84.5 -16.5q-41 0 -88.5 20.5t-75.5 61.5v-484h-205v484q-12 -18 -24.5 -28.5t-28.5 -21.5q-29 -16 -51.5 -24t-59.5 -8q-31 0 -68.5 9t-72.5 44q-29 29 -48.5 74t-19.5 104zM283 281q0 -23 4 -44.5t22 -41.5q25 -27 64 -27q18 0 36.5 8t34.5 27 q20 25 24.5 49t4.5 51v410q0 25 -4 53.5t-25 50.5q-8 10 -24.5 20.5t-42.5 10.5q-43 0 -68 -29q-18 -20 -22 -44.5t-4 -49.5v-444zM662 303q0 -27 4 -51.5t24 -48.5q16 -18 34.5 -26.5t37.5 -8.5q39 0 63 27q18 20 22.5 41.5t4.5 44.5v444q0 25 -4 49.5t-23 44.5 q-25 29 -67 29q-27 0 -43.5 -10.5t-24.5 -20.5q-20 -23 -24 -51.5t-4 -52.5v-410z" />
<glyph unicode="&#xf5;" horiz-adv-x="733" d="M14 0l250 518l-237 498h215l127 -289l127 289h215l-242 -498l254 -518h-215l-139 311l-140 -311h-215z" />
<glyph unicode="&#xf6;" horiz-adv-x="876" d="M111 0v1016h204v-832h209v832h205v-832h127v-389h-194v205h-551z" />
<glyph unicode="&#xf7;" horiz-adv-x="780" d="M61 602v414h205v-363q0 -16 4 -36.5t21 -36.5q16 -16 36.5 -20.5t37.5 -4.5q35 0 59.5 6t40.5 17v438h205v-1016h-205v410q-82 -39 -178 -39q-35 0 -82 9t-86 48q-41 41 -49.5 87t-8.5 87z" />
<glyph unicode="&#xf8;" horiz-adv-x="1224" d="M111 0v1016h204v-832h195v832h205v-832h194v832h205v-1016h-1003z" />
<glyph unicode="&#xf9;" horiz-adv-x="1241" d="M111 0v1016h204v-832h195v832h205v-832h194v832h205v-832h127v-389h-194v205h-936z" />
<glyph unicode="&#xfa;" horiz-adv-x="890" d="M-10 815v201h420v-377h106q57 0 114.5 -10.5t106.5 -55.5q29 -25 55.5 -71.5t26.5 -118.5v-115q0 -18 -2 -41.5t-10 -51.5t-24.5 -56.5t-45.5 -52.5q-51 -45 -107.5 -55.5t-113.5 -10.5h-311v815h-215zM410 184h94q20 0 44.5 6.5t43.5 28.5q16 16 19 35.5t3 36.5v57 q0 16 -4 38t-20 38q-18 20 -41 25.5t-45 5.5h-94v-271z" />
<glyph unicode="&#xfb;" horiz-adv-x="1165" d="M111 0v1016h204v-377h107q57 0 114.5 -10.5t106.5 -55.5q29 -25 55.5 -71.5t26.5 -118.5v-115q0 -18 -2 -41.5t-10 -51.5t-24.5 -56.5t-45.5 -52.5q-51 -45 -107.5 -55.5t-113.5 -10.5h-311zM315 184h95q20 0 44.5 6.5t43.5 28.5q16 16 19 35.5t3 36.5v57q0 16 -4 38 t-20 38q-18 20 -41 25.5t-45 5.5h-95v-271zM850 0v1016h205v-1016h-205z" />
<glyph unicode="&#xfc;" horiz-adv-x="786" d="M111 0v1016h204v-377h107q57 0 114.5 -10.5t106.5 -55.5q29 -25 55.5 -71.5t26.5 -118.5v-115q0 -18 -2 -41.5t-10 -51.5t-24.5 -56.5t-45.5 -52.5q-51 -45 -107.5 -55.5t-113.5 -10.5h-311zM315 184h95q20 0 44.5 6.5t43.5 28.5q16 16 19 35.5t3 36.5v57q0 16 -4 38 t-20 38q-18 20 -41 25.5t-45 5.5h-95v-271z" />
<glyph unicode="&#xfd;" horiz-adv-x="776" d="M61 285v18h205v-16q0 -16 6.5 -36t16.5 -32q18 -23 41.5 -29t40.5 -6q37 0 56 12.5t28 22.5q14 16 19 40t5 46v117h-200v184h200v92q0 27 -5 51.5t-23 47.5t-40 28.5t-40 5.5q-31 0 -51.5 -11t-30.5 -27q-10 -14 -16.5 -33t-6.5 -35v-16h-205v6q0 59 20.5 122.5 t61.5 106.5q39 41 100.5 64.5t135.5 23.5q76 0 127 -23.5t84 -52.5t51 -62.5t27.5 -68t12.5 -68.5t3 -65v-350q0 -33 -1 -67.5t-8 -69.5t-23.5 -69t-47.5 -64q-41 -43 -103.5 -65.5t-131.5 -22.5q-70 0 -120 20.5t-85 48.5q-35 29 -69 85.5t-34 146.5z" />
<glyph unicode="&#xfe;" horiz-adv-x="1153" d="M111 0v1016h204v-410h127v82q0 31 2 65.5t12.5 70.5t31 71t55.5 66q41 35 96 53t113 18q57 0 112.5 -18.5t96.5 -52.5q35 -31 55 -66t30.5 -71t12.5 -70.5t2 -65.5v-360q0 -31 -2 -66t-12.5 -70.5t-31 -70.5t-54.5 -66q-41 -35 -96.5 -53t-112.5 -18t-112.5 18t-96.5 53 q-35 31 -55.5 66t-31 70.5t-12.5 70.5t-2 66v94h-127v-422h-204zM647 315q0 -68 31 -102q29 -29 74 -29q23 0 42 8.5t31 20.5q31 35 31 102v385q0 68 -31 103q-12 12 -31.5 20t-41.5 8q-45 0 -74 -28q-31 -35 -31 -103v-385z" />
<glyph unicode="&#xff;" horiz-adv-x="817" d="M51 0l166 449q-47 25 -80 65q-23 29 -34 74t-11 86v86q0 72 26.5 119t55.5 71q49 45 106.5 55.5t114.5 10.5h312v-1016h-205v418h-90l-140 -418h-221zM297 688q0 -16 4 -37.5t21 -38.5q18 -20 40.5 -25t45.5 -5h94v270h-94q-20 0 -40 -5t-40 -26q-20 -20 -25.5 -40.5 t-5.5 -47.5v-45z" />
<glyph unicode="&#x2000;" horiz-adv-x="890" />
<glyph unicode="&#x2001;" horiz-adv-x="1780" />
<glyph unicode="&#x2002;" horiz-adv-x="890" />
<glyph unicode="&#x2003;" horiz-adv-x="1780" />
<glyph unicode="&#x2004;" horiz-adv-x="593" />
<glyph unicode="&#x2005;" horiz-adv-x="445" />
<glyph unicode="&#x2006;" horiz-adv-x="296" />
<glyph unicode="&#x2007;" horiz-adv-x="296" />
<glyph unicode="&#x2008;" horiz-adv-x="222" />
<glyph unicode="&#x2009;" horiz-adv-x="356" />
<glyph unicode="&#x200a;" horiz-adv-x="98" />
<glyph unicode="&#x2010;" horiz-adv-x="643" d="M92 535v184h459v-184h-459z" />
<glyph unicode="&#x2011;" horiz-adv-x="643" d="M92 535v184h459v-184h-459z" />
<glyph unicode="&#x2012;" horiz-adv-x="643" d="M92 535v184h459v-184h-459z" />
<glyph unicode="&#x2013;" horiz-adv-x="1208" d="M92 535v184h1024v-184h-1024z" />
<glyph unicode="&#x2014;" horiz-adv-x="2232" d="M92 535v184h2048v-184h-2048z" />
<glyph unicode="&#x202f;" horiz-adv-x="356" />
<glyph unicode="&#x205f;" horiz-adv-x="445" />
<glyph unicode="&#x25fc;" horiz-adv-x="1013" d="M0 0v1014h1014v-1014h-1014z" />
</font>
</defs>
</svg>
